<?xml version="1.0" encoding="UTF-8" standalone="no"?>
<svg
   xmlns:dc="http://purl.org/dc/elements/1.1/"
   xmlns:cc="http://creativecommons.org/ns#"
   xmlns:rdf="http://www.w3.org/1999/02/22-rdf-syntax-ns#"
   xmlns:svg="http://www.w3.org/2000/svg"
   xmlns="http://www.w3.org/2000/svg"
   xmlns:xlink="http://www.w3.org/1999/xlink"
   xmlns:sodipodi="http://sodipodi.sourceforge.net/DTD/sodipodi-0.dtd"
   xmlns:inkscape="http://www.inkscape.org/namespaces/inkscape"
   id="Слой_1"
   viewBox="-380.2 274.7 65.7 65.8"
   version="1.1"
   sodipodi:docname="google-g-2015.svg"
   inkscape:version="0.92.4 (5da689c313, 2019-01-14)">
  <metadata
     id="metadata51">
    <rdf:RDF>
      <cc:Work
         rdf:about="">
        <dc:format>image/svg+xml</dc:format>
        <dc:type
           rdf:resource="http://purl.org/dc/dcmitype/StillImage" />
      </cc:Work>
    </rdf:RDF>
  </metadata>
  <defs
     id="defs49" />
  <sodipodi:namedview
     pagecolor="#ffffff"
     bordercolor="#666666"
     borderopacity="1"
     objecttolerance="10"
     gridtolerance="10"
     guidetolerance="10"
     inkscape:pageopacity="0"
     inkscape:pageshadow="2"
     inkscape:window-width="897"
     inkscape:window-height="480"
     id="namedview47"
     showgrid="false"
     inkscape:zoom="2.5361275"
     inkscape:cx="33.400512"
     inkscape:cy="37.262187"
     inkscape:window-x="0"
     inkscape:window-y="0"
     inkscape:window-maximized="0"
     inkscape:current-layer="Слой_1" />
  <style
     id="style2">.st0{fill:#e0e0e0}.st1{fill:#fff}.st2{clip-path:url(#SVGID_2_);fill:#fbbc05}.st3{clip-path:url(#SVGID_4_);fill:#ea4335}.st4{clip-path:url(#SVGID_6_);fill:#34a853}.st5{clip-path:url(#SVGID_8_);fill:#4285f4}</style>
  <g
     id="g44"
     transform="matrix(1.3667925,0,0,1.3667925,127.78134,-112.92624)">
    <defs
       id="defs9">
      <path
         id="SVGID_1_"
         d="m -326.3,303.3 h -20.5 v 8.5 h 11.8 c -1.1,5.4 -5.7,8.5 -11.8,8.5 -7.2,0 -13,-5.8 -13,-13 0,-7.2 5.8,-13 13,-13 3.1,0 5.9,1.1 8.1,2.9 l 6.4,-6.4 c -3.9,-3.4 -8.9,-5.5 -14.5,-5.5 -12.2,0 -22,9.8 -22,22 0,12.2 9.8,22 22,22 11,0 21,-8 21,-22 0,-1.3 -0.2,-2.7 -0.5,-4 z"
         inkscape:connector-curvature="0" />
    </defs>
    <clipPath
       id="SVGID_2_">
      <use
         xlink:href="#SVGID_1_"
         overflow="visible"
         id="use11"
         style="overflow:visible"
         x="0"
         y="0"
         width="100%"
         height="100%" />
    </clipPath>
    <path
       class="st2"
       d="m -370.8,320.3 v -26 l 17,13 z"
       clip-path="url(#SVGID_2_)"
       id="path14"
       inkscape:connector-curvature="0"
       style="fill:#fbbc05" />
    <defs
       id="defs17">
      <path
         id="SVGID_3_"
         d="m -326.3,303.3 h -20.5 v 8.5 h 11.8 c -1.1,5.4 -5.7,8.5 -11.8,8.5 -7.2,0 -13,-5.8 -13,-13 0,-7.2 5.8,-13 13,-13 3.1,0 5.9,1.1 8.1,2.9 l 6.4,-6.4 c -3.9,-3.4 -8.9,-5.5 -14.5,-5.5 -12.2,0 -22,9.8 -22,22 0,12.2 9.8,22 22,22 11,0 21,-8 21,-22 0,-1.3 -0.2,-2.7 -0.5,-4 z"
         inkscape:connector-curvature="0" />
    </defs>
    <clipPath
       id="SVGID_4_">
      <use
         xlink:href="#SVGID_3_"
         overflow="visible"
         id="use19"
         style="overflow:visible"
         x="0"
         y="0"
         width="100%"
         height="100%" />
    </clipPath>
    <path
       class="st3"
       d="m -370.8,294.3 17,13 7,-6.1 24,-3.9 v -14 h -48 z"
       clip-path="url(#SVGID_4_)"
       id="path22"
       inkscape:connector-curvature="0"
       style="fill:#ea4335" />
    <g
       id="g32">
      <defs
         id="defs25">
        <path
           id="SVGID_5_"
           d="m -326.3,303.3 h -20.5 v 8.5 h 11.8 c -1.1,5.4 -5.7,8.5 -11.8,8.5 -7.2,0 -13,-5.8 -13,-13 0,-7.2 5.8,-13 13,-13 3.1,0 5.9,1.1 8.1,2.9 l 6.4,-6.4 c -3.9,-3.4 -8.9,-5.5 -14.5,-5.5 -12.2,0 -22,9.8 -22,22 0,12.2 9.8,22 22,22 11,0 21,-8 21,-22 0,-1.3 -0.2,-2.7 -0.5,-4 z"
           inkscape:connector-curvature="0" />
      </defs>
      <clipPath
         id="SVGID_6_">
        <use
           xlink:href="#SVGID_5_"
           overflow="visible"
           id="use27"
           style="overflow:visible"
           x="0"
           y="0"
           width="100%"
           height="100%" />
      </clipPath>
      <path
         class="st4"
         d="m -370.8,320.3 30,-23 7.9,1 10.1,-15 v 48 h -48 z"
         clip-path="url(#SVGID_6_)"
         id="path30"
         inkscape:connector-curvature="0"
         style="fill:#34a853" />
    </g>
    <g
       id="g42">
      <defs
         id="defs35">
        <path
           id="SVGID_7_"
           d="m -326.3,303.3 h -20.5 v 8.5 h 11.8 c -1.1,5.4 -5.7,8.5 -11.8,8.5 -7.2,0 -13,-5.8 -13,-13 0,-7.2 5.8,-13 13,-13 3.1,0 5.9,1.1 8.1,2.9 l 6.4,-6.4 c -3.9,-3.4 -8.9,-5.5 -14.5,-5.5 -12.2,0 -22,9.8 -22,22 0,12.2 9.8,22 22,22 11,0 21,-8 21,-22 0,-1.3 -0.2,-2.7 -0.5,-4 z"
           inkscape:connector-curvature="0" />
      </defs>
      <clipPath
         id="SVGID_8_">
        <use
           xlink:href="#SVGID_7_"
           overflow="visible"
           id="use37"
           style="overflow:visible"
           x="0"
           y="0"
           width="100%"
           height="100%" />
      </clipPath>
      <path
         class="st5"
         d="m -322.8,331.3 -31,-24 -4,-3 35,-10 z"
         clip-path="url(#SVGID_8_)"
         id="path40"
         inkscape:connector-curvature="0"
         style="fill:#4285f4" />
    </g>
  </g>
</svg>
