<?xml version="1.0" encoding="UTF-8"?>
<svg width="2500" height="2500" version="1.1" viewBox="-12.71 6.647 257.21 241.35" xmlns="http://www.w3.org/2000/svg" xmlns:cc="http://creativecommons.org/ns#" xmlns:dc="http://purl.org/dc/elements/1.1/" xmlns:rdf="http://www.w3.org/1999/02/22-rdf-syntax-ns#" xmlns:xlink="http://www.w3.org/1999/xlink">
 <metadata>
  <rdf:RDF>
   <cc:Work rdf:about="">
    <dc:format>image/svg+xml</dc:format>
    <dc:type rdf:resource="http://purl.org/dc/dcmitype/StillImage"/>
    <dc:title/>
   </cc:Work>
  </rdf:RDF>
 </metadata>
 <defs>
  <linearGradient id="linearGradient956" x1="231.62" x2="231.75" y1="195.19" y2="201.5" gradientUnits="userSpaceOnUse" xlink:href="#f"/>
  <linearGradient id="linearGradient958" x1="231.38" x2="231.38" y1="195.62" y2="200.07" gradientUnits="userSpaceOnUse" xlink:href="#f"/>
  <radialGradient id="radialGradient960" cx="228.22" cy="204.83" r="14.094" gradientTransform="matrix(1 0 0 .14775 0 174.57)" gradientUnits="userSpaceOnUse" xlink:href="#f"/>
 </defs>
 <filter id="a" color-interpolation-filters="sRGB">
  <feGaussianBlur stdDeviation=".805"/>
 </filter>
 <filter id="b" color-interpolation-filters="sRGB">
  <feGaussianBlur stdDeviation="3.49"/>
 </filter>
 <linearGradient id="c" x1="82.119" x2="60" y1="20" y2="40" gradientUnits="userSpaceOnUse">
  <stop stop-color="#c0cdf9" offset="0"/>
  <stop stop-color="#07092d" stop-opacity=".288" offset="1"/>
 </linearGradient>
 <filter id="d" color-interpolation-filters="sRGB">
  <feGaussianBlur stdDeviation="2.416"/>
 </filter>
 <linearGradient id="e" x1="32.914" x2="58.144" y1="34.938" y2="60.168" gradientUnits="userSpaceOnUse" xlink:href="#f"/>
 <linearGradient id="f">
  <stop stop-color="#fff" offset="0"/>
  <stop stop-color="#fff" stop-opacity="0" offset="1"/>
 </linearGradient>
 <linearGradient id="h" x1="60" x2="90" y1="20" y2="50" gradientUnits="userSpaceOnUse" xlink:href="#f"/>
 <radialGradient id="i" cx="116.31" cy="250.9" r="30.6" gradientTransform="matrix(1.57 0 0 1.0509 -75.5 -22.096)" gradientUnits="userSpaceOnUse" xlink:href="#f"/>
 <radialGradient id="k" cx="132.44" cy="251.99" r="30.6" gradientTransform="matrix(2.0032 0 0 1.3409 -132.88 -95.166)" gradientUnits="userSpaceOnUse" xlink:href="#f"/>
 <filter id="l" x="-.078" y="-.114" width="1.156" height="1.228" color-interpolation-filters="sRGB">
  <feGaussianBlur stdDeviation="1.958"/>
 </filter>
 <radialGradient id="m" cx="210.25" cy="168.5" r="34.25" gradientTransform="matrix(1 0 0 .42336 0 97.164)" gradientUnits="userSpaceOnUse" xlink:href="#f"/>
 <radialGradient id="n" cx="217.5" cy="182.08" r="34.25" gradientTransform="matrix(1 0 0 .42336 0 97.164)" gradientUnits="userSpaceOnUse" xlink:href="#f"/>
 <filter id="o" x="-.074" y="-.175" width="1.149" height="1.351" color-interpolation-filters="sRGB">
  <feGaussianBlur stdDeviation="2.12"/>
 </filter>
 <filter id="r" x="-.085" y="-.278" width="1.171" height="1.556" color-interpolation-filters="sRGB">
  <feGaussianBlur stdDeviation=".565"/>
 </filter>
 <filter id="t" x="-.07" y="-.473" width="1.14" height="1.946" color-interpolation-filters="sRGB">
  <feGaussianBlur stdDeviation=".821"/>
 </filter>
 <radialGradient id="u" cx="89.875" cy="187.87" r="22.75" gradientTransform="matrix(1 0 0 .40708 0 115.76)" gradientUnits="userSpaceOnUse">
  <stop stop-color="#fff" stop-opacity=".33" offset="0"/>
  <stop stop-color="#fff" stop-opacity="0" offset="1"/>
 </radialGradient>
 <radialGradient id="v" cx="90.281" cy="230.84" r="10.469" gradientTransform="matrix(1.1851 -.32836 .12286 .4434 -45.068 152.92)" gradientUnits="userSpaceOnUse" xlink:href="#f"/>
 <filter id="w" x="-.076" y="-.166" width="1.152" height="1.331" color-interpolation-filters="sRGB">
  <feGaussianBlur stdDeviation=".665"/>
 </filter>
 <radialGradient id="x" cx="68.4" cy="21.226" r="54.783" gradientTransform="matrix(1.7222 0 0 1.695 -49.395 -14.078)" gradientUnits="userSpaceOnUse" xlink:href="#f"/>
 <filter id="y" color-interpolation-filters="sRGB">
  <feGaussianBlur stdDeviation=".326"/>
 </filter>
 <linearGradient id="z" x1="95.5" x2="153.5" y1="208.16" y2="223.5" gradientUnits="userSpaceOnUse" xlink:href="#f"/>
 <filter id="A" x="-.083" y="-.122" width="1.165" height="1.245" color-interpolation-filters="sRGB">
  <feGaussianBlur stdDeviation="3.687"/>
 </filter>
 <linearGradient id="B" x1="55.836" x2="52.655" y1="76.727" y2="84.016" gradientUnits="userSpaceOnUse">
  <stop stop-color="#eeeeec" offset="0"/>
  <stop stop-color="#eeeeec" stop-opacity="0" offset="1"/>
 </linearGradient>
 <radialGradient id="C" cx="181.23" cy="214.55" r="22.466" gradientTransform="matrix(1.3515 0 0 1.7176 -63.706 -153.96)" gradientUnits="userSpaceOnUse" xlink:href="#f"/>
 <filter id="D" color-interpolation-filters="sRGB">
  <feGaussianBlur stdDeviation="1.241"/>
 </filter>
 <linearGradient id="E" x1="30.324" x2="34.78" y1="79.214" y2="82.755" gradientUnits="userSpaceOnUse" xlink:href="#f"/>
 <filter id="F" color-interpolation-filters="sRGB">
  <feGaussianBlur stdDeviation="2.77"/>
 </filter>
 <linearGradient id="G" x1="50.647" x2="23.535" y1="134.15" y2="61.147" gradientUnits="userSpaceOnUse">
  <stop stop-color="#729fcf" offset="0"/>
  <stop stop-color="#729fcf" stop-opacity="0" offset="1"/>
 </linearGradient>
 <g transform="matrix(1.9129 0 0 1.9178 -6.5551 2.7589)" enable-background="new">
  <g opacity=".783">
   <path transform="translate(0 .488)" d="m54.1 12.988-41.2 42.2c-15.6 15.6 10.1 14.3 19.4 20.2 4.3 2.8-13.8 6.4-10.1 10.1 3.6 3.7 21.7 7.1 25.3 10.7 3.6 3.7-7.3 7.6-3.7 11.3 3.5 3.7 11.9 0.2 13.4 8.6 1.1 6.2 15.4 3.1 21.8-2.2 4-3.4-6.9-3.4-3.3-7.1 9-9.1 17-4.1 20.3-12.5 1.8-4.5-13.6-7.7-9.5-10.6 9.8-6.9 45.8-10.4 29.2-27l-42.7-43.7c-5.3-5-14-5-18.9 0zm47.3 81.3c0 2.1 16.3 3.3 15.4-0.5-1.3-6.4-13.6-5.9-15.4 0.5zm-69.5 11.1c3.7 3.2 9.3-0.7 11.1-5.2-3.6-4.7-16.9 0.3-11.1 5.2zm67.5-6.7c-4.6 4.2 0.8 8.6 5.3 5.7 1.2-0.8-0.1-4.7-5.3-5.7z" filter="url(#a)"/>
   <path transform="translate(0 .488)" d="m54.1 13.965-41.2 42.2c-15.6 15.6 10.1 14.3 19.4 20.2 4.3 2.8-13.8 6.4-10.1 10.1 3.6 3.7 21.7 7.1 25.3 10.7 3.6 3.7-7.3 7.6-3.7 11.3 3.5 3.7 11.9 0.2 13.4 8.6 1.1 6.2 15.4 3.1 21.8-2.2 4-3.4-6.9-3.4-3.3-7.1 9-9.1 17-4.1 20.3-12.5 1.8-4.5-13.6-7.7-9.5-10.6 9.8-6.9 45.8-10.4 29.2-27l-42.7-43.7c-5.3-5-14-5-18.9 0zm47.3 81.3c0 2.1 16.3 3.3 15.4-0.5-1.3-6.4-13.6-5.9-15.4 0.5zm-69.5 11.1c3.7 3.2 9.3-0.7 11.1-5.2-3.6-4.7-16.9 0.3-11.1 5.2zm67.5-6.7c-4.6 4.2 0.8 8.6 5.3 5.7 1.2-0.8-0.1-4.7-5.3-5.7z" filter="url(#b)" opacity=".576"/>
  </g>
  <path d="m54.1 12.5-41.2 42.2c-15.6 15.6 10.1 14.3 19.4 20.2 4.3 2.8-13.8 6.4-10.1 10.1 3.6 3.7 21.7 7.1 25.3 10.7 3.6 3.7-7.3 7.6-3.7 11.3 3.5 3.7 11.9 0.2 13.4 8.6 1.1 6.2 15.4 3.1 21.8-2.2 4-3.4-6.9-3.4-3.3-7.1 9-9.1 17-4.1 20.3-12.5 1.8-4.5-13.6-7.7-9.5-10.6 9.8-6.9 45.8-10.4 29.2-27l-42.7-43.7c-5.3-5-14-5-18.9 0zm47.3 81.3c0 2.1 16.3 3.3 15.4-0.5-1.3-6.4-13.6-5.9-15.4 0.5zm-69.5 11.1c3.7 3.2 9.3-0.7 11.1-5.2-3.6-4.7-16.9 0.3-11.1 5.2zm67.5-6.7c-4.6 4.2 0.8 8.6 5.3 5.7 1.2-0.8-0.1-4.7-5.3-5.7z"/>
  <path d="m54.1 12.5-41.2 42.2c-15.6 15.6 10.1 14.3 19.4 20.2 4.3 2.8-13.8 6.4-10.1 10.1 3.6 3.7 21.7 7.1 25.3 10.7 3.6 3.7-7.3 7.6-3.7 11.3 3.5 3.7 11.9 0.2 13.4 8.6 1.1 6.2 15.4 3.1 21.8-2.2 4-3.4-6.9-3.4-3.3-7.1 9-9.1 17-4.1 20.3-12.5 1.8-4.5-13.6-7.7-9.5-10.6 9.8-6.9 45.8-10.4 29.2-27l-42.7-43.7c-5.3-5-14-5-18.9 0zm47.3 81.3c0 2.1 16.3 3.3 15.4-0.5-1.3-6.4-13.6-5.9-15.4 0.5zm-69.5 11.1c3.7 3.2 9.3-0.7 11.1-5.2-3.6-4.7-16.9 0.3-11.1 5.2zm67.5-6.7c-4.6 4.2 0.8 8.6 5.3 5.7 1.2-0.8-0.1-4.7-5.3-5.7z" fill="none"/>
  <path transform="matrix(.99054 0 0 .99054 .605 .604)" width="400" height="300" d="m54.1 12.5-41.2 42.2c-15.6 15.6 10.1 14.3 19.4 20.2 4.3 2.8-13.8 6.4-10.1 10.1 3.6 3.7 21.7 7.1 25.3 10.7 3.6 3.7-7.3 7.6-3.7 11.3 3.5 3.7 11.9 0.2 13.4 8.6 1.1 6.2 15.4 3.1 21.8-2.2 4-3.4-6.9-3.4-3.3-7.1 9-9.1 17-4.1 20.3-12.5 1.8-4.5-13.6-7.7-9.5-10.6 9.8-6.9 45.8-10.4 29.2-27l-42.7-43.7c-5.3-5-14-5-18.9 0zm-9.9 64.7c0.9 0 30.8 4 19.3 7.1-4.4 1.2-24.6-7.1-19.3-7.1zm57.2 16.6c0 2.1 16.3 3.3 15.4-0.5-1.3-6.4-13.6-5.9-15.4 0.5zm-69.5 11.1c3.7 3.2 9.3-0.7 11.1-5.2-3.6-4.7-16.9 0.3-11.1 5.2zm67.5-6.7c-4.6 4.2 0.8 8.6 5.3 5.7 1.2-0.8-0.1-4.7-5.3-5.7z" fill="url(#c)" filter="url(#d)" opacity=".67"/>
  <path d="m16.565 57.04c-11.202 11.1 8.477 7.972 23.615 13.926l31.285-55c-4.743-4.844-10.798-4.44-15.138 0z" fill="url(#e)" opacity=".505"/>
  <path d="m70.5 15.5 16.3 16.6c1.5 1.5 1.5 4.6 0.6 5.5l-8.1-6.6-1.6 9.7-6.7-3.6-10.9 6.9-3.6-14.5-5.8 12.6-14.5-0.1c-2.8 0-2.4-2.9 0.5-5.8 5.7-6.3 16.8-17 20.3-20.7 3.6-3.7 9.9-3.6 13.5 0z" fill="url(#h)"/>
  <g fill-rule="evenodd">
   <path transform="matrix(.52965 0 0 .52965 -11.722 -13.864)" d="m113 203.5s3.34 5.1 3 7.5c-0.668 4.709-10.81 7.058-8.563 11.25 2.22 4.141 10.222 1.794 16.938 6.125 6.688 4.313 4.89 13.101 9.75 15.313 9.48 4.312 34.375-7.438 33.125-7.188s-24.57 5.095-29.82 0.845c-5.986-4.845-7.702-8.23-12.118-11.095-4.137-2.685-9.95-3.78-11.302-5.979s2.71-5.034 2.99-9.271c0.169-2.544-4-7.5-4-7.5z" fill="url(#i)" opacity=".217"/>
   <path transform="matrix(.52965 0 0 .52965 -11.722 -13.864)" d="m113 203.5s3.34 5.1 3 7.5c-0.668 4.709-10.81 7.058-8.563 11.25 2.22 4.141 10.222 1.794 16.938 6.125 6.688 4.313 4.89 13.101 9.75 15.313 9.48 4.312 34.375-7.438 33.125-7.188-41.34 0.157-33.625-10.495-49.563-17.5-2.303-1.012-0.968-3.763-0.687-8 0.169-2.544-4-7.5-4-7.5z" fill="url(#k)" filter="url(#l)" opacity=".276"/>
   <path transform="matrix(.52965 0 0 .52965 -11.722 -13.864)" d="m183.25 181.75c37.104-13.655 49.024-15.53 61.25-27.75-14.16 11.954-44.098 18.366-68.5 29z" fill="url(#m)" opacity=".453"/>
   <path transform="matrix(.52965 0 0 .52965 -11.722 -14.791)" d="m183.25 181.75c61.104-21.655 50.774-21.53 61.25-27.75-19.428 7.437-55.734 8.23-68.5 29z" fill="url(#n)" filter="url(#o)" opacity=".512"/>
  </g>
  <path transform="matrix(.52965 0 0 .52965 -12.384 -14.791)" d="m237.88 199.06a7.938 2.438 0 1 1-15.875 0 7.938 2.438 0 1 1 15.875 0z" fill="url(#linearGradient956)" opacity=".286"/>
  <path transform="matrix(.71315 0 0 1.1408 -54.578 -134.96)" d="m237.88 199.06a7.938 2.438 0 1 1-15.875 0 7.938 2.438 0 1 1 15.875 0z" fill="url(#linearGradient958)" filter="url(#r)" opacity=".621"/>
  <path transform="matrix(.52965 0 0 .52965 -11.722 -14.239)" d="m214.12 203.75c3.77 3.484 24.756 5.272 28.188-1-6.737 4.784-21.717 3.103-28.188 1z" fill="url(#radialGradient960)" fill-rule="evenodd" filter="url(#t)"/>
  <path transform="matrix(.20425 -.10356 .23952 .4724 5.755 30.287)" d="m236.45 199.06a6.5085 3.0822 0 1 1-13.017 0 6.5085 3.0822 0 1 1 13.017 0z" fill="url(#linearGradient956)" opacity=".286"/>
  <path transform="matrix(.27502 -.13944 .51588 1.0175 -65.353 -69.3)" d="m236.99 199.06a7.056 2.14 0 1 1-14.111 0 7.056 2.14 0 1 1 14.111 0z" fill="url(#linearGradient958)" filter="url(#r)" opacity=".621"/>
  <path transform="matrix(.20425 -.10356 .23952 .4724 6.26 30.65)" d="m217.06 201.94c3.769 3.485 26.97 8.912 25.254 0.81-3.317 5.323-18.784 1.293-25.254-0.81z" fill="url(#radialGradient960)" fill-rule="evenodd" filter="url(#t)"/>
  <path transform="matrix(.52965 0 0 .52965 -11.722 -13.864)" d="m68.25 186c0-0.62 38.846 11.839 45.5 18.5-5.471-5.339-33.16-17.616-37.375-17.75s-7.625-0.5-8.125-0.75z" fill="url(#u)" fill-rule="evenodd"/>
  <path transform="matrix(.46557 -.10222 .12385 .3686 -95.518 49.727)" d="m237.88 199.06a7.938 2.438 0 1 1-15.875 0 7.938 2.438 0 1 1 15.875 0z" fill="url(#linearGradient956)" opacity=".286"/>
  <path transform="matrix(.62687 -.13763 .26675 .7939 -160.71 -25.755)" d="m237.88 199.06a7.938 2.438 0 1 1-15.875 0 7.938 2.438 0 1 1 15.875 0z" fill="url(#linearGradient958)" filter="url(#r)" opacity=".621"/>
  <path transform="matrix(.52965 0 0 .52965 -11.623 -14.427)" d="m80.5 220.06s2.103 5.65 7.875 5.937c5.839 0.29 12.503-7.007 13.063-9.625-1 2.25-6.59 9.033-13.813 8.938-4.1-0.055-7.125-5.25-7.125-5.25z" fill="url(#v)" fill-rule="evenodd" filter="url(#w)" opacity=".616"/>
  <path d="m63.406 10.219c-3.098 0-6.134 1.122-8.281 3.312l-41.188 42.189c-3.765 3.765-4.67 6.23-4.437 7.625 0.116 0.697 0.459 1.303 1.188 1.937 0.728 0.635 1.831 1.257 3.156 1.813 2.65 1.112 6.218 2.008 9.719 2.969s6.93 1.974 9.53 3.624c0.397 0.259 0.77 0.577 1.032 1.032s0.354 1.056 0.25 1.562c-0.208 1.013-0.832 1.547-1.469 2.031-1.273 0.969-3.023 1.774-4.781 2.626s-3.525 1.723-4.406 2.437c-0.44 0.357-0.6 0.678-0.594 0.656s-0.117-0.273 0.094-0.062c0.552 0.567 2.274 1.538 4.468 2.406s4.881 1.746 7.594 2.625 5.458 1.75 7.782 2.656 4.217 1.75 5.468 3c0.623 0.64 1.063 1.436 1.157 2.25 0.093 0.814-0.127 1.578-0.438 2.219-0.621 1.281-1.62 2.267-2.531 3.219-0.911 0.951-1.736 1.86-2.032 2.469-0.147 0.304-0.17 0.502-0.156 0.624 0.014 0.123 0.035 0.247 0.313 0.532a1.457 1.457 0 0 1 0.031 0.031c1.194 1.262 3.787 1.44 6.719 2.125 1.466 0.343 2.999 0.862 4.312 2s2.3 2.87 2.719 5.219c0.176 0.994 0.703 1.479 1.969 1.875s3.194 0.465 5.312 0.156c4.237-0.619 9.26-2.695 12.156-5.094 0.18-0.153 0.13-0.112 0.188-0.187-0.195-0.14-0.652-0.437-1.406-0.813-0.892-0.444-1.945-0.86-2.75-1.875-0.403-0.507-0.68-1.31-0.563-2.094s0.547-1.437 1.125-2.03c4.746-4.8 9.422-5.945 12.938-6.876 1.758-0.465 3.229-0.891 4.344-1.594s1.985-1.663 2.718-3.53c0.081-0.203 0.079-0.262-0.031-0.5-0.11-0.24-0.404-0.622-0.875-1.032-0.941-0.819-2.51-1.7-4.063-2.563s-3.06-1.668-4.156-2.687c-0.548-0.51-1.122-1.152-1.187-2.125-0.066-0.973 0.572-1.852 1.312-2.375 2.746-1.933 6.897-3.405 11.406-4.969 4.51-1.564 9.362-3.182 13.313-5.031s6.857-3.979 7.781-6.125c0.462-1.073 0.547-2.159 0.063-3.563s-1.59-3.12-3.563-5.093l-42.656-43.658-0.031-0.03c-2.358-2.208-5.479-3.313-8.563-3.313zm45.938 80c-2.635 0.095-5.06 1.301-6.094 3.187 0.294 0.11 0.558 0.235 1.031 0.344 1.376 0.316 3.296 0.52 5.188 0.563 1.892 0.041 3.784-0.118 4.937-0.438 0.505-0.14 0.773-0.282 0.906-0.375-0.255-1.091-0.864-1.862-1.906-2.438-1.078-0.595-2.556-0.898-4.062-0.843zm-70.5 9.062c-2.09-0.145-4.717 0.687-6 1.719-0.642 0.516-0.914 0.994-0.938 1.313-0.024 0.318 0.078 0.741 0.938 1.468a1.457 1.457 0 0 1 0 0.031c1.353 1.17 2.882 1.048 4.625 0.094 1.46-0.8 2.757-2.3 3.625-3.875a4.57 4.57 0 0 0-2.25-0.75zm61 0.625c-0.448 0.569-0.691 1.098-0.719 1.469-0.038 0.512 0.107 0.907 0.5 1.281 0.737 0.701 2.34 1.003 3.969 0.125a1.996 1.996 0 0 0-0.344-0.844c-0.5-0.734-1.669-1.525-3.406-2.03z" fill="none" filter="url(#y)" stroke="url(#x)" stroke-width=".488"/>
  <g fill-rule="evenodd">
   <path transform="matrix(.4883 0 0 .4883 -5.81 -7.704)" d="m95.5 172c-5.09 1.502-21.592 7.737-19.25 12.5 2.244 4.563 40.611 6.401 46.5 20 2.568 5.93-5.892 10.403-3.75 16.5 1.65 4.695 14.412 16.49 22.486 22.068 6.333 4.374 14.651-3.523 11.264-10.068-5.396-10.428 18.443-23.2 29.25-29 6.305-3.384-13-20-13-20z" fill="url(#z)" filter="url(#A)" opacity=".325"/>
   <path d="m41.742 78.533c2.232 1.64 6.637 0.65 9.282 1.842 6.35 2.859 14.155 6.045 12.719 0.404l-1.616 1.342-0.031-2.557-3.752 0.916s-2.907-2.333-4.239-3.102c-0.278-0.16-1.708 1.293-1.708 1.293l-0.257-1.544a47.622 47.622 0 0 0-5.315-0.272c-3.88 0.031-6.499 0.638-5.083 1.678z" fill="url(#B)"/>
   <path transform="matrix(.4883 0 0 .4883 -5.81 -7.704)" d="m182.75 187.25c-1.76 6.478 21.628 15.28 19.875 19.75-3.859 9.842-24.976 3.138-41.125 23.75-2.313 2.953 3.25 13.5 2.5 12.25s-6.465-9.963-5-14.25c4.594-13.445 49.013-18.457 40.875-24.875-4.68-3.69-21.505-13.887-17.125-16.625z" fill="url(#C)" filter="url(#D)" opacity=".478"/>
  </g>
  <path d="m109.12 90.232a1.2515 0.51921 0 1 1-2.503 0 1.2515 0.51921 0 1 1 2.503 0zm-8.362 9.583a0.7935 0.51933 0 1 1-1.587 0 0.7935 0.51933 0 1 1 1.587 0zm-63.297-0.458a1.404 0.519 0 1 1-2.808 0 1.404 0.519 0 1 1 2.808 0z" fill="#fff" opacity=".586"/>
  <path d="m36.672 76.529c-7.153 4.424-18.274 6.034-6.104 8.972-1.45-3.228 3.139-2.872 6.104-8.972z" fill="url(#E)" opacity=".251"/>
  <path transform="matrix(.4883 0 0 .4883 57.75 32.997)" d="m8.834 171.65s22.592-2.128 27.818-8.646c3.058-3.814-12.151-8.264-8.868-12 12.35-14.054 22.73-13.468 37.05-19.354s9.036-8.769 4.404-11.353c-7.932-4.427-25.587-9.143-19.747-19.647 5.877-10.57 57.343-25.25 57.343-25.25 15.596-5.328 13.64-14.964 6-23l-46-45.75s2.283 43.389-7 62c-11.471 23-72.544 48.662-47 51.5 9 1 13.32 4.07 17 11 7.577 14.269-21 40.5-21 40.5z" fill="url(#G)" filter="url(#F)" opacity=".363"/>
 </g>
</svg>
