<?xml version="1.0" encoding="UTF-8" standalone="no"?>
<svg
   xmlns:dc="http://purl.org/dc/elements/1.1/"
   xmlns:cc="http://creativecommons.org/ns#"
   xmlns:rdf="http://www.w3.org/1999/02/22-rdf-syntax-ns#"
   xmlns:svg="http://www.w3.org/2000/svg"
   xmlns="http://www.w3.org/2000/svg"
   xmlns:xlink="http://www.w3.org/1999/xlink"
   xmlns:sodipodi="http://sodipodi.sourceforge.net/DTD/sodipodi-0.dtd"
   xmlns:inkscape="http://www.inkscape.org/namespaces/inkscape"
   height="2500"
   viewBox="-12.71 6.647 257.21 241.353"
   width="2500"
   version="1.1"
   id="svg143"
   sodipodi:docname="inkscape-logo-2.svg"
   inkscape:version="0.92.4 (5da689c313, 2019-01-14)">
  <metadata
     id="metadata149">
    <rdf:RDF>
      <cc:Work
         rdf:about="">
        <dc:format>image/svg+xml</dc:format>
        <dc:type
           rdf:resource="http://purl.org/dc/dcmitype/StillImage" />
      </cc:Work>
    </rdf:RDF>
  </metadata>
  <defs
     id="defs147">
    <linearGradient
       inkscape:collect="always"
       xlink:href="#f"
       id="linearGradient956"
       gradientUnits="userSpaceOnUse"
       x1="231.625"
       y1="195.188"
       x2="231.75"
       y2="201.5" />
    <linearGradient
       inkscape:collect="always"
       xlink:href="#f"
       id="linearGradient958"
       gradientUnits="userSpaceOnUse"
       x1="231.376"
       y1="195.621"
       x2="231.376"
       y2="200.071" />
    <radialGradient
       inkscape:collect="always"
       xlink:href="#f"
       id="radialGradient960"
       gradientUnits="userSpaceOnUse"
       gradientTransform="matrix(1,0,0,0.14775,0,174.57)"
       cx="228.219"
       cy="204.832"
       r="14.094" />
    <linearGradient
       inkscape:collect="always"
       xlink:href="#f"
       id="linearGradient962"
       gradientUnits="userSpaceOnUse"
       x1="231.625"
       y1="195.188"
       x2="231.75"
       y2="201.5" />
    <linearGradient
       inkscape:collect="always"
       xlink:href="#f"
       id="linearGradient964"
       gradientUnits="userSpaceOnUse"
       x1="231.376"
       y1="195.621"
       x2="231.376"
       y2="200.071" />
  </defs>
  <sodipodi:namedview
     pagecolor="#ffffff"
     bordercolor="#666666"
     borderopacity="1"
     objecttolerance="10"
     gridtolerance="10"
     guidetolerance="10"
     inkscape:pageopacity="0"
     inkscape:pageshadow="2"
     inkscape:window-width="1314"
     inkscape:window-height="707"
     id="namedview145"
     showgrid="false"
     inkscape:zoom="0.0944"
     inkscape:cx="1146.358"
     inkscape:cy="1149.6539"
     inkscape:window-x="0"
     inkscape:window-y="0"
     inkscape:window-maximized="0"
     inkscape:current-layer="svg143" />
  <filter
     id="a"
     color-interpolation-filters="sRGB">
    <feGaussianBlur
       stdDeviation=".805"
       id="feGaussianBlur2" />
  </filter>
  <filter
     id="b"
     color-interpolation-filters="sRGB">
    <feGaussianBlur
       stdDeviation="3.49"
       id="feGaussianBlur5" />
  </filter>
  <linearGradient
     id="c"
     gradientUnits="userSpaceOnUse"
     x1="82.119"
     x2="60"
     y1="20"
     y2="40">
    <stop
       offset="0"
       stop-color="#c0cdf9"
       id="stop8" />
    <stop
       offset="1"
       stop-color="#07092d"
       stop-opacity=".288"
       id="stop10" />
  </linearGradient>
  <filter
     id="d"
     color-interpolation-filters="sRGB">
    <feGaussianBlur
       stdDeviation="2.416"
       id="feGaussianBlur13" />
  </filter>
  <linearGradient
     id="e"
     gradientUnits="userSpaceOnUse"
     x1="32.914"
     x2="58.144"
     xlink:href="#f"
     y1="34.938"
     y2="60.168" />
  <linearGradient
     id="f">
    <stop
       offset="0"
       stop-color="#fff"
       id="stop17" />
    <stop
       offset="1"
       stop-color="#fff"
       stop-opacity="0"
       id="stop19" />
  </linearGradient>
  <linearGradient
     id="g"
     gradientUnits="userSpaceOnUse"
     xlink:href="#f" />
  <linearGradient
     id="h"
     gradientUnits="userSpaceOnUse"
     x1="60"
     x2="90"
     xlink:href="#f"
     y1="20"
     y2="50" />
  <radialGradient
     id="i"
     cx="116.31"
     cy="250.897"
     gradientTransform="matrix(1.57005,0,0,1.05093,-75.5,-22.096)"
     gradientUnits="userSpaceOnUse"
     r="30.6"
     xlink:href="#f" />
  <linearGradient
     id="j"
     xlink:href="#f" />
  <radialGradient
     id="k"
     cx="132.444"
     cy="251.994"
     gradientTransform="matrix(2.00325,0,0,1.3409,-132.875,-95.166)"
     gradientUnits="userSpaceOnUse"
     r="30.6"
     xlink:href="#f" />
  <filter
     id="l"
     color-interpolation-filters="sRGB"
     height="1.228"
     width="1.156"
     x="-.078"
     y="-.114">
    <feGaussianBlur
       stdDeviation="1.958"
       id="feGaussianBlur27" />
  </filter>
  <radialGradient
     id="m"
     cx="210.25"
     cy="168.5"
     gradientTransform="matrix(1,0,0,0.42336,0,97.164)"
     gradientUnits="userSpaceOnUse"
     r="34.25"
     xlink:href="#f" />
  <radialGradient
     id="n"
     cx="217.5"
     cy="182.082"
     gradientTransform="matrix(1,0,0,0.42336,0,97.164)"
     gradientUnits="userSpaceOnUse"
     r="34.25"
     xlink:href="#f" />
  <filter
     id="o"
     color-interpolation-filters="sRGB"
     height="1.351"
     width="1.149"
     x="-.074"
     y="-.175">
    <feGaussianBlur
       stdDeviation="2.12"
       id="feGaussianBlur32" />
  </filter>
  <linearGradient
     id="p"
     gradientUnits="userSpaceOnUse"
     x1="231.625"
     x2="231.75"
     xlink:href="#f"
     y1="195.188"
     y2="201.5" />
  <linearGradient
     id="q"
     gradientUnits="userSpaceOnUse"
     x1="231.376"
     x2="231.376"
     xlink:href="#f"
     y1="195.621"
     y2="200.071" />
  <filter
     id="r"
     color-interpolation-filters="sRGB"
     height="1.556"
     width="1.171"
     x="-.085"
     y="-.278">
    <feGaussianBlur
       stdDeviation=".565"
       id="feGaussianBlur37" />
  </filter>
  <radialGradient
     id="s"
     cx="228.219"
     cy="204.832"
     gradientTransform="matrix(1,0,0,0.14775,0,174.57)"
     gradientUnits="userSpaceOnUse"
     r="14.094"
     xlink:href="#f" />
  <filter
     id="t"
     color-interpolation-filters="sRGB"
     height="1.946"
     width="1.14"
     x="-.07"
     y="-.473">
    <feGaussianBlur
       stdDeviation=".821"
       id="feGaussianBlur41" />
  </filter>
  <radialGradient
     id="u"
     cx="89.875"
     cy="187.869"
     gradientTransform="matrix(1,0,0,0.40708,0,115.76)"
     gradientUnits="userSpaceOnUse"
     r="22.75">
    <stop
       offset="0"
       stop-color="#fff"
       stop-opacity=".33"
       id="stop44" />
    <stop
       offset="1"
       stop-color="#fff"
       stop-opacity="0"
       id="stop46" />
  </radialGradient>
  <radialGradient
     id="v"
     cx="90.281"
     cy="230.836"
     gradientTransform="matrix(1.18507,-0.32836,0.12286,0.4434,-45.068,152.922)"
     gradientUnits="userSpaceOnUse"
     r="10.469"
     xlink:href="#f" />
  <filter
     id="w"
     color-interpolation-filters="sRGB"
     height="1.331"
     width="1.152"
     x="-.076"
     y="-.166">
    <feGaussianBlur
       stdDeviation=".665"
       id="feGaussianBlur50" />
  </filter>
  <radialGradient
     id="x"
     cx="68.4"
     cy="21.226"
     gradientTransform="matrix(1.72215,0,0,1.69498,-49.395,-14.078)"
     gradientUnits="userSpaceOnUse"
     r="54.783"
     xlink:href="#f" />
  <filter
     id="y"
     color-interpolation-filters="sRGB">
    <feGaussianBlur
       stdDeviation=".326"
       id="feGaussianBlur54" />
  </filter>
  <linearGradient
     id="z"
     gradientUnits="userSpaceOnUse"
     x1="95.5"
     x2="153.5"
     xlink:href="#f"
     y1="208.164"
     y2="223.5" />
  <filter
     id="A"
     color-interpolation-filters="sRGB"
     height="1.245"
     width="1.165"
     x="-.083"
     y="-.122">
    <feGaussianBlur
       stdDeviation="3.687"
       id="feGaussianBlur58" />
  </filter>
  <linearGradient
     id="B"
     gradientUnits="userSpaceOnUse"
     x1="55.836"
     x2="52.655"
     y1="76.727"
     y2="84.016">
    <stop
       offset="0"
       stop-color="#eeeeec"
       id="stop61" />
    <stop
       offset="1"
       stop-color="#eeeeec"
       stop-opacity="0"
       id="stop63" />
  </linearGradient>
  <radialGradient
     id="C"
     cx="181.227"
     cy="214.551"
     gradientTransform="matrix(1.35152,0,0,1.71757,-63.706,-153.956)"
     gradientUnits="userSpaceOnUse"
     r="22.466"
     xlink:href="#f" />
  <filter
     id="D"
     color-interpolation-filters="sRGB">
    <feGaussianBlur
       stdDeviation="1.241"
       id="feGaussianBlur67" />
  </filter>
  <linearGradient
     id="E"
     gradientUnits="userSpaceOnUse"
     x1="30.324"
     x2="34.78"
     xlink:href="#f"
     y1="79.214"
     y2="82.755" />
  <filter
     id="F"
     color-interpolation-filters="sRGB">
    <feGaussianBlur
       stdDeviation="2.77"
       id="feGaussianBlur71" />
  </filter>
  <linearGradient
     id="G"
     gradientUnits="userSpaceOnUse"
     x1="50.647"
     x2="23.535"
     y1="134.147"
     y2="61.147">
    <stop
       offset="0"
       stop-color="#729fcf"
       id="stop74" />
    <stop
       offset="1"
       stop-color="#729fcf"
       stop-opacity="0"
       id="stop76" />
  </linearGradient>
  <g
     transform="matrix(1.9129044,0,0,1.9177652,-6.5550828,2.7589148)"
     id="g141"
     style="enable-background:new">
    <g
       id="g83"
       style="opacity:0.78299997">
      <path
         d="m 54.1,12.988 -41.2,42.2 c -15.6,15.6 10.1,14.3 19.4,20.2 4.3,2.8 -13.8,6.4 -10.1,10.1 3.6,3.7 21.7,7.1 25.3,10.7 3.6,3.7 -7.3,7.6 -3.7,11.3 3.5,3.7 11.9,0.2 13.4,8.6 1.1,6.2 15.4,3.1 21.8,-2.2 4,-3.4 -6.9,-3.4 -3.3,-7.1 9,-9.1 17,-4.1 20.3,-12.5 1.8,-4.5 -13.6,-7.7 -9.5,-10.6 9.8,-6.9 45.8,-10.4 29.2,-27 L 73,12.988 c -5.3,-5 -14,-5 -18.9,0 z m 47.3,81.3 c 0,2.1 16.3,3.3 15.4,-0.5 -1.3,-6.4 -13.6,-5.9 -15.4,0.5 z m -69.5,11.1 c 3.7,3.2 9.3,-0.7 11.1,-5.2 -3.6,-4.7 -16.9,0.3 -11.1,5.2 z m 67.5,-6.7 c -4.6,4.2 0.8,8.6 5.3,5.7 1.2,-0.8 -0.1,-4.7 -5.3,-5.7 z"
         transform="translate(0,0.488)"
         id="path79"
         inkscape:connector-curvature="0"
         style="filter:url(#a)" />
      <path
         d="m 54.1,13.965 -41.2,42.2 c -15.6,15.6 10.1,14.3 19.4,20.2 4.3,2.8 -13.8,6.4 -10.1,10.1 3.6,3.7 21.7,7.1 25.3,10.7 3.6,3.7 -7.3,7.6 -3.7,11.3 3.5,3.7 11.9,0.2 13.4,8.6 1.1,6.2 15.4,3.1 21.8,-2.2 4,-3.4 -6.9,-3.4 -3.3,-7.1 9,-9.1 17,-4.1 20.3,-12.5 1.8,-4.5 -13.6,-7.7 -9.5,-10.6 9.8,-6.9 45.8,-10.4 29.2,-27 L 73,13.965 c -5.3,-5 -14,-5 -18.9,0 z m 47.3,81.3 c 0,2.1 16.3,3.3 15.4,-0.5 -1.3,-6.4 -13.6,-5.9 -15.4,0.5 z m -69.5,11.1 c 3.7,3.2 9.3,-0.7 11.1,-5.2 -3.6,-4.7 -16.9,0.3 -11.1,5.2 z m 67.5,-6.7 c -4.6,4.2 0.8,8.6 5.3,5.7 1.2,-0.8 -0.1,-4.7 -5.3,-5.7 z"
         transform="translate(0,0.488)"
         id="path81"
         inkscape:connector-curvature="0"
         style="opacity:0.57599996;filter:url(#b)" />
    </g>
    <path
       d="M 54.1,12.5 12.9,54.7 C -2.7,70.3 23,69 32.3,74.9 36.6,77.7 18.5,81.3 22.2,85 c 3.6,3.7 21.7,7.1 25.3,10.7 3.6,3.7 -7.3,7.6 -3.7,11.3 3.5,3.7 11.9,0.2 13.4,8.6 1.1,6.2 15.4,3.1 21.8,-2.2 4,-3.4 -6.9,-3.4 -3.3,-7.1 9,-9.1 17,-4.1 20.3,-12.5 1.8,-4.5 -13.6,-7.7 -9.5,-10.6 9.8,-6.9 45.8,-10.4 29.2,-27 L 73,12.5 c -5.3,-5 -14,-5 -18.9,0 z m 47.3,81.3 c 0,2.1 16.3,3.3 15.4,-0.5 -1.3,-6.4 -13.6,-5.9 -15.4,0.5 z m -69.5,11.1 c 3.7,3.2 9.3,-0.7 11.1,-5.2 -3.6,-4.7 -16.9,0.3 -11.1,5.2 z m 67.5,-6.7 c -4.6,4.2 0.8,8.6 5.3,5.7 1.2,-0.8 -0.1,-4.7 -5.3,-5.7 z"
       id="path85"
       inkscape:connector-curvature="0" />
    <path
       d="M 54.1,12.5 12.9,54.7 C -2.7,70.3 23,69 32.3,74.9 36.6,77.7 18.5,81.3 22.2,85 c 3.6,3.7 21.7,7.1 25.3,10.7 3.6,3.7 -7.3,7.6 -3.7,11.3 3.5,3.7 11.9,0.2 13.4,8.6 1.1,6.2 15.4,3.1 21.8,-2.2 4,-3.4 -6.9,-3.4 -3.3,-7.1 9,-9.1 17,-4.1 20.3,-12.5 1.8,-4.5 -13.6,-7.7 -9.5,-10.6 9.8,-6.9 45.8,-10.4 29.2,-27 L 73,12.5 c -5.3,-5 -14,-5 -18.9,0 z m 47.3,81.3 c 0,2.1 16.3,3.3 15.4,-0.5 -1.3,-6.4 -13.6,-5.9 -15.4,0.5 z m -69.5,11.1 c 3.7,3.2 9.3,-0.7 11.1,-5.2 -3.6,-4.7 -16.9,0.3 -11.1,5.2 z m 67.5,-6.7 c -4.6,4.2 0.8,8.6 5.3,5.7 1.2,-0.8 -0.1,-4.7 -5.3,-5.7 z"
       id="path87"
       inkscape:connector-curvature="0"
       style="fill:none" />
    <path
       d="M 54.1,12.5 12.9,54.7 C -2.7,70.3 23,69 32.3,74.9 36.6,77.7 18.5,81.3 22.2,85 c 3.6,3.7 21.7,7.1 25.3,10.7 3.6,3.7 -7.3,7.6 -3.7,11.3 3.5,3.7 11.9,0.2 13.4,8.6 1.1,6.2 15.4,3.1 21.8,-2.2 4,-3.4 -6.9,-3.4 -3.3,-7.1 9,-9.1 17,-4.1 20.3,-12.5 1.8,-4.5 -13.6,-7.7 -9.5,-10.6 9.8,-6.9 45.8,-10.4 29.2,-27 L 73,12.5 c -5.3,-5 -14,-5 -18.9,0 z m -9.9,64.7 c 0.9,0 30.8,4 19.3,7.1 -4.4,1.2 -24.6,-7.1 -19.3,-7.1 z m 57.2,16.6 c 0,2.1 16.3,3.3 15.4,-0.5 -1.3,-6.4 -13.6,-5.9 -15.4,0.5 z m -69.5,11.1 c 3.7,3.2 9.3,-0.7 11.1,-5.2 -3.6,-4.7 -16.9,0.3 -11.1,5.2 z m 67.5,-6.7 c -4.6,4.2 0.8,8.6 5.3,5.7 1.2,-0.8 -0.1,-4.7 -5.3,-5.7 z"
       height="300"
       transform="matrix(0.99054,0,0,0.99054,0.605,0.604)"
       width="400"
       id="path89"
       style="opacity:0.67000002;fill:url(#c);filter:url(#d)"
       inkscape:connector-curvature="0" />
    <path
       d="m 16.565,57.04 c -11.202,11.1 8.477,7.972 23.615,13.926 l 31.285,-55 c -4.743,-4.844 -10.798,-4.44 -15.138,0 z"
       id="path91"
       style="opacity:0.50499998;fill:url(#e)"
       inkscape:connector-curvature="0" />
    <path
       d="m 70.5,15.5 16.3,16.6 c 1.5,1.5 1.5,4.6 0.6,5.5 L 79.3,31 77.7,40.7 71,37.1 60.1,44 56.5,29.5 50.7,42.1 36.2,42 c -2.8,0 -2.4,-2.9 0.5,-5.8 5.7,-6.3 16.8,-17 20.3,-20.7 3.6,-3.7 9.9,-3.6 13.5,0 z"
       id="path93"
       style="fill:url(#h)"
       inkscape:connector-curvature="0" />
    <g
       id="g103"
       style="fill-rule:evenodd">
      <path
         d="m 113,203.5 c 0,0 3.34,5.1 3,7.5 -0.668,4.709 -10.81,7.058 -8.563,11.25 2.22,4.141 10.222,1.794 16.938,6.125 6.688,4.313 4.89,13.101 9.75,15.313 9.48,4.312 34.375,-7.438 33.125,-7.188 -1.25,0.25 -24.57,5.095 -29.82,0.845 -5.986,-4.845 -7.702,-8.23 -12.118,-11.095 -4.137,-2.685 -9.95,-3.78 -11.302,-5.979 -1.352,-2.199 2.71,-5.034 2.99,-9.271 0.169,-2.544 -4,-7.5 -4,-7.5 z"
         transform="matrix(0.52965,0,0,0.52965,-11.722,-13.864)"
         id="path95"
         style="opacity:0.21700003;fill:url(#i)"
         inkscape:connector-curvature="0" />
      <path
         d="m 113,203.5 c 0,0 3.34,5.1 3,7.5 -0.668,4.709 -10.81,7.058 -8.563,11.25 2.22,4.141 10.222,1.794 16.938,6.125 6.688,4.313 4.89,13.101 9.75,15.313 9.48,4.312 34.375,-7.438 33.125,-7.188 -41.34,0.157 -33.625,-10.495 -49.563,-17.5 -2.303,-1.012 -0.968,-3.763 -0.687,-8 0.169,-2.544 -4,-7.5 -4,-7.5 z"
         transform="matrix(0.52965,0,0,0.52965,-11.722,-13.864)"
         id="path97"
         style="opacity:0.27600002;fill:url(#k);filter:url(#l)"
         inkscape:connector-curvature="0" />
      <path
         d="M 183.25,181.75 C 220.354,168.095 232.274,166.22 244.5,154 230.34,165.954 200.402,172.366 176,183 Z"
         transform="matrix(0.52965,0,0,0.52965,-11.722,-13.864)"
         id="path99"
         style="opacity:0.453;fill:url(#m)"
         inkscape:connector-curvature="0" />
      <path
         d="m 183.25,181.75 c 61.104,-21.655 50.774,-21.53 61.25,-27.75 -19.428,7.437 -55.734,8.23 -68.5,29 z"
         transform="matrix(0.52965,0,0,0.52965,-11.722,-14.791)"
         id="path101"
         style="opacity:0.51200005;fill:url(#n);filter:url(#o)"
         inkscape:connector-curvature="0" />
    </g>
    <path
       d="m 237.875,199.063 a 7.938,2.438 0 1 1 -15.875,0 7.938,2.438 0 1 1 15.875,0 z"
       transform="matrix(0.52965,0,0,0.52965,-12.384,-14.791)"
       id="path105"
       style="opacity:0.28600003;fill:url(#linearGradient956)"
       inkscape:connector-curvature="0" />
    <path
       d="m 237.875,199.063 a 7.938,2.438 0 1 1 -15.875,0 7.938,2.438 0 1 1 15.875,0 z"
       transform="matrix(0.71315,0,0,1.14078,-54.578,-134.955)"
       id="path107"
       style="opacity:0.62099998;fill:url(#linearGradient958);filter:url(#r)"
       inkscape:connector-curvature="0" />
    <path
       d="m 214.125,203.75 c 3.77,3.484 24.756,5.272 28.188,-1 -6.737,4.784 -21.717,3.103 -28.188,1 z"
       transform="matrix(0.52965,0,0,0.52965,-11.722,-14.239)"
       id="path109"
       style="fill:url(#radialGradient960);fill-rule:evenodd;filter:url(#t)"
       inkscape:connector-curvature="0" />
    <path
       d="m 236.446,199.063 a 6.5085,3.0822368 0 1 1 -13.017,0 6.5085,3.0822368 0 1 1 13.017,0 z"
       transform="matrix(0.20425,-0.10356,0.23952,0.4724,5.755,30.287)"
       id="path111"
       style="opacity:0.28600003;fill:url(#linearGradient962)"
       inkscape:connector-curvature="0" />
    <path
       d="m 236.993,199.063 a 7.056,2.14 0 1 1 -14.111,0 7.056,2.14 0 1 1 14.111,0 z"
       transform="matrix(0.27502,-0.13944,0.51588,1.01747,-65.353,-69.3)"
       id="path113"
       style="opacity:0.62099998;fill:url(#linearGradient964);filter:url(#r)"
       inkscape:connector-curvature="0" />
    <path
       d="m 217.058,201.94 c 3.769,3.485 26.97,8.912 25.254,0.81 -3.317,5.323 -18.784,1.293 -25.254,-0.81 z"
       transform="matrix(0.20425,-0.10356,0.23952,0.4724,6.26,30.65)"
       id="path115"
       style="fill:url(#s);fill-rule:evenodd;filter:url(#t)"
       inkscape:connector-curvature="0" />
    <path
       d="m 68.25,186 c 0,-0.62 38.846,11.839 45.5,18.5 -5.471,-5.339 -33.16,-17.616 -37.375,-17.75 -4.215,-0.134 -7.625,-0.5 -8.125,-0.75 z"
       transform="matrix(0.52965,0,0,0.52965,-11.722,-13.864)"
       id="path117"
       style="fill:url(#u);fill-rule:evenodd"
       inkscape:connector-curvature="0" />
    <path
       d="m 237.875,199.063 a 7.938,2.438 0 1 1 -15.875,0 7.938,2.438 0 1 1 15.875,0 z"
       transform="matrix(0.46557,-0.10222,0.12385,0.3686,-95.518,49.727)"
       id="path119"
       style="opacity:0.28600003;fill:url(#p)"
       inkscape:connector-curvature="0" />
    <path
       d="m 237.875,199.063 a 7.938,2.438 0 1 1 -15.875,0 7.938,2.438 0 1 1 15.875,0 z"
       transform="matrix(0.62687,-0.13763,0.26675,0.7939,-160.706,-25.755)"
       id="path121"
       style="opacity:0.62099998;fill:url(#q);filter:url(#r)"
       inkscape:connector-curvature="0" />
    <path
       d="m 80.5,220.063 c 0,0 2.103,5.65 7.875,5.937 5.839,0.29 12.503,-7.007 13.063,-9.625 -1,2.25 -6.59,9.033 -13.813,8.938 -4.1,-0.055 -7.125,-5.25 -7.125,-5.25 z"
       transform="matrix(0.52965,0,0,0.52965,-11.623,-14.427)"
       id="path123"
       style="opacity:0.61600001;fill:url(#v);fill-rule:evenodd;filter:url(#w)"
       inkscape:connector-curvature="0" />
    <path
       d="m 63.406,10.219 c -3.098,0 -6.134,1.122 -8.281,3.312 L 13.937,55.72 c -3.765,3.765 -4.67,6.23 -4.437,7.625 0.116,0.697 0.459,1.303 1.188,1.937 0.728,0.635 1.831,1.257 3.156,1.813 2.65,1.112 6.218,2.008 9.719,2.969 3.501,0.961 6.93,1.974 9.53,3.624 0.397,0.259 0.77,0.577 1.032,1.032 0.262,0.455 0.354,1.056 0.25,1.562 -0.208,1.013 -0.832,1.547 -1.469,2.031 -1.273,0.969 -3.023,1.774 -4.781,2.626 -1.758,0.852 -3.525,1.723 -4.406,2.437 -0.44,0.357 -0.6,0.678 -0.594,0.656 0.006,-0.022 -0.117,-0.273 0.094,-0.062 0.552,0.567 2.274,1.538 4.468,2.406 2.194,0.868 4.881,1.746 7.594,2.625 2.713,0.879 5.458,1.75 7.782,2.656 2.324,0.906 4.217,1.75 5.468,3 0.623,0.64 1.063,1.436 1.157,2.25 0.093,0.814 -0.127,1.578 -0.438,2.219 -0.621,1.281 -1.62,2.267 -2.531,3.219 -0.911,0.951 -1.736,1.86 -2.032,2.469 -0.147,0.304 -0.17,0.502 -0.156,0.624 0.014,0.123 0.035,0.247 0.313,0.532 a 1.457,1.457 0 0 1 0.031,0.031 c 1.194,1.262 3.787,1.44 6.719,2.125 1.466,0.343 2.999,0.862 4.312,2 1.313,1.138 2.3,2.87 2.719,5.219 0.176,0.994 0.703,1.479 1.969,1.875 1.266,0.396 3.194,0.465 5.312,0.156 4.237,-0.619 9.26,-2.695 12.156,-5.094 0.18,-0.153 0.13,-0.112 0.188,-0.187 -0.195,-0.14 -0.652,-0.437 -1.406,-0.813 -0.892,-0.444 -1.945,-0.86 -2.75,-1.875 -0.403,-0.507 -0.68,-1.31 -0.563,-2.094 0.117,-0.784 0.547,-1.437 1.125,-2.03 4.746,-4.8 9.422,-5.945 12.938,-6.876 1.758,-0.465 3.229,-0.891 4.344,-1.594 1.115,-0.703 1.985,-1.663 2.718,-3.53 0.081,-0.203 0.079,-0.262 -0.031,-0.5 -0.11,-0.24 -0.404,-0.622 -0.875,-1.032 -0.941,-0.819 -2.51,-1.7 -4.063,-2.563 -1.553,-0.863 -3.06,-1.668 -4.156,-2.687 -0.548,-0.51 -1.122,-1.152 -1.187,-2.125 -0.066,-0.973 0.572,-1.852 1.312,-2.375 2.746,-1.933 6.897,-3.405 11.406,-4.969 4.51,-1.564 9.362,-3.182 13.313,-5.031 3.951,-1.849 6.857,-3.979 7.781,-6.125 0.462,-1.073 0.547,-2.159 0.063,-3.563 -0.484,-1.404 -1.59,-3.12 -3.563,-5.093 L 72,13.562 71.969,13.532 C 69.611,11.324 66.49,10.219 63.406,10.219 Z m 45.938,80 c -2.635,0.095 -5.06,1.301 -6.094,3.187 0.294,0.11 0.558,0.235 1.031,0.344 1.376,0.316 3.296,0.52 5.188,0.563 1.892,0.041 3.784,-0.118 4.937,-0.438 0.505,-0.14 0.773,-0.282 0.906,-0.375 -0.255,-1.091 -0.864,-1.862 -1.906,-2.438 -1.078,-0.595 -2.556,-0.898 -4.062,-0.843 z m -70.5,9.062 c -2.09,-0.145 -4.717,0.687 -6,1.719 -0.642,0.516 -0.914,0.994 -0.938,1.313 -0.024,0.318 0.078,0.741 0.938,1.468 a 1.457,1.457 0 0 1 0,0.031 c 1.353,1.17 2.882,1.048 4.625,0.094 1.46,-0.8 2.757,-2.3 3.625,-3.875 a 4.57,4.57 0 0 0 -2.25,-0.75 z m 61,0.625 c -0.448,0.569 -0.691,1.098 -0.719,1.469 -0.038,0.512 0.107,0.907 0.5,1.281 0.737,0.701 2.34,1.003 3.969,0.125 a 1.996,1.996 0 0 0 -0.344,-0.844 c -0.5,-0.734 -1.669,-1.525 -3.406,-2.03 z"
       id="path125"
       style="fill:none;stroke:url(#x);stroke-width:0.48800001;filter:url(#y)"
       inkscape:connector-curvature="0" />
    <g
       id="g133"
       style="fill-rule:evenodd">
      <path
         d="m 95.5,172 c -5.09,1.502 -21.592,7.737 -19.25,12.5 2.244,4.563 40.611,6.401 46.5,20 2.568,5.93 -5.892,10.403 -3.75,16.5 1.65,4.695 14.412,16.49 22.486,22.068 6.333,4.374 14.651,-3.523 11.264,-10.068 -5.396,-10.428 18.443,-23.2 29.25,-29 6.305,-3.384 -13,-20 -13,-20 z"
         transform="matrix(0.4883,0,0,0.4883,-5.81,-7.704)"
         id="path127"
         style="opacity:0.325;fill:url(#z);filter:url(#A)"
         inkscape:connector-curvature="0" />
      <path
         d="m 41.742,78.533 c 2.232,1.64 6.637,0.65 9.282,1.842 6.35,2.859 14.155,6.045 12.719,0.404 l -1.616,1.342 -0.031,-2.557 -3.752,0.916 c 0,0 -2.907,-2.333 -4.239,-3.102 -0.278,-0.16 -1.708,1.293 -1.708,1.293 L 52.14,77.127 a 47.622,47.622 0 0 0 -5.315,-0.272 c -3.88,0.031 -6.499,0.638 -5.083,1.678 z"
         id="path129"
         style="fill:url(#B)"
         inkscape:connector-curvature="0" />
      <path
         d="m 182.75,187.25 c -1.76,6.478 21.628,15.28 19.875,19.75 -3.859,9.842 -24.976,3.138 -41.125,23.75 -2.313,2.953 3.25,13.5 2.5,12.25 -0.75,-1.25 -6.465,-9.963 -5,-14.25 4.594,-13.445 49.013,-18.457 40.875,-24.875 -4.68,-3.69 -21.505,-13.887 -17.125,-16.625 z"
         transform="matrix(0.4883,0,0,0.4883,-5.81,-7.704)"
         id="path131"
         style="opacity:0.478;fill:url(#C);filter:url(#D)"
         inkscape:connector-curvature="0" />
    </g>
    <path
       d="m 109.125,90.232 a 1.2515,0.51920743 0 1 1 -2.503,0 1.2515,0.51920743 0 1 1 2.503,0 z m -8.362,9.583 a 0.7935,0.51932724 0 1 1 -1.587,0 0.7935,0.51932724 0 1 1 1.587,0 z M 37.466,99.357 a 1.404,0.519 0 1 1 -2.808,0 1.404,0.519 0 1 1 2.808,0 z"
       id="path135"
       inkscape:connector-curvature="0"
       style="opacity:0.58600003;fill:#ffffff" />
    <path
       d="m 36.672,76.529 c -7.153,4.424 -18.274,6.034 -6.104,8.972 -1.45,-3.228 3.139,-2.872 6.104,-8.972 z"
       id="path137"
       style="opacity:0.25100002;fill:url(#E)"
       inkscape:connector-curvature="0" />
    <path
       d="m 8.834,171.647 c 0,0 22.592,-2.128 27.818,-8.646 3.058,-3.814 -12.151,-8.264 -8.868,-12 12.35,-14.054 22.73,-13.468 37.05,-19.354 14.32,-5.886 9.036,-8.769 4.404,-11.353 -7.932,-4.427 -25.587,-9.143 -19.747,-19.647 5.877,-10.57 57.343,-25.25 57.343,-25.25 15.596,-5.328 13.64,-14.964 6,-23 l -46,-45.75 c 0,0 2.283,43.389 -7,62 -11.471,23 -72.544,48.662 -47,51.5 9,1 13.32,4.07 17,11 7.577,14.269 -21,40.5 -21,40.5 z"
       transform="matrix(0.4883,0,0,0.4883,57.75,32.997)"
       id="path139"
       style="opacity:0.36300001;fill:url(#G);filter:url(#F)"
       inkscape:connector-curvature="0" />
  </g>
</svg>
