<?xml version="1.0" encoding="UTF-8" standalone="no"?>
<svg
   height="2500"
   preserveAspectRatio="xMidYMid"
   width="2500"
   viewBox="-165.83095 -227.12219 570.167 797.39608"
   version="1.1"
   id="svg6"
   sodipodi:docname="jest-2.svg"
   inkscape:version="1.1.1 (3bf5ae0d25, 2021-09-20)"
   xmlns:inkscape="http://www.inkscape.org/namespaces/inkscape"
   xmlns:sodipodi="http://sodipodi.sourceforge.net/DTD/sodipodi-0.dtd"
   xmlns="http://www.w3.org/2000/svg"
   xmlns:svg="http://www.w3.org/2000/svg">
  <defs
     id="defs10" />
  <sodipodi:namedview
     id="namedview8"
     pagecolor="#ffffff"
     bordercolor="#999999"
     borderopacity="1"
     inkscape:pageshadow="0"
     inkscape:pageopacity="0"
     inkscape:pagecheckerboard="0"
     showgrid="false"
     inkscape:zoom="0.20377164"
     inkscape:cx="1133.622"
     inkscape:cy="1322.5589"
     inkscape:window-width="1920"
     inkscape:window-height="991"
     inkscape:window-x="-9"
     inkscape:window-y="-9"
     inkscape:window-maximized="1"
     inkscape:current-layer="svg6" />
  <path
     d="m 418.215,169.00454 c 0,-40.52372 -32.8536,-73.377325 -73.37732,-73.377325 -2.60885,0 -5.17859,0.139653 -7.71483,0.407797 L 437.90705,-201.21719 H 9.6090954 L 110.25367,95.775254 A 73.511403,73.511403 0 0 0 105.79292,95.63 c -40.523747,0 -73.377352,32.84802 -73.377352,73.37734 0,32.75584 21.468515,60.4895 51.095981,69.92493 -15.647498,27.1052 -35.339545,51.52055 -57.696309,72.6148 -30.4011789,28.67776 -65.193261,50.4256 -102.823236,63.82457 -44.802864,-23.01595 -65.958554,-74.20131 -46.869824,-119.07964 2.15634,-5.06966 4.35738,-10.20635 6.46065,-15.3207 32.45693,-7.57515 56.646041,-36.6719 56.646041,-71.43885 0,-40.52652 -32.853601,-73.377323 -73.380091,-73.377323 -40.52652,0 -73.37732,32.850803 -73.37732,73.377323 0,24.85109 12.36269,46.80284 31.26427,60.07612 -18.16138,41.35051 -44.85877,84.62833 -53.17692,134.7858 -9.96893,60.10963 -0.0335,123.91749 51.95629,159.95253 121.079533,83.91886 252.510716,-52.02333 391.08692,-86.19811 50.22173,-12.38225 105.35109,-10.38791 149.59815,-36.01271 33.22788,-19.24513 55.13493,-51.14068 61.34981,-86.94668 6.14504,-35.37308 -2.80996,-70.59252 -23.40142,-99.15018 A 73.064492,73.064492 0 0 0 418.215,169.00454"
     fill="#99425b"
     id="path2"
     style="stroke-width:2.7932" />
  <path
     d="m 406.89417,312.12246 c -5.39647,31.0883 -24.59691,58.24098 -52.67415,74.50578 -26.17506,15.15869 -57.53988,19.68367 -90.75102,24.47121 -17.78987,2.56415 -36.18588,5.2205 -54.15734,9.65049 -47.51788,11.71748 -93.54421,34.57981 -138.051086,56.68798 -89.075102,44.24428 -165.999781,82.44965 -238.533534,32.17764 -53.13224,-36.82273 -50.6798,-104.95443 -44.49007,-142.28834 5.73722,-34.59096 21.24786,-66.44738 36.24454,-97.25358 a 2225.1207,2225.1207 0 0 0 7.60309,-15.73688 90.647677,90.647677 0 0 0 23.58298,5.91599 c -15.26762,50.38652 8.74271,105.17233 59.134764,131.05969 l 6.899207,3.54456 7.301411,-2.60046 C -31.157637,378.06709 5.5533638,355.30252 38.113689,324.58013 59.160443,304.72328 77.257574,282.75476 92.13136,259.28072 a 91.616918,91.616918 0 0 0 13.66156,1.02511 c 46.25259,0 84.55294,-34.57701 90.48011,-79.23467 18.93229,-0.69271 39.04052,-0.6983 58.08177,-0.005 5.92158,44.66325 44.22751,79.24304 90.48008,79.24304 19.3401,0 37.27804,-6.06123 52.05684,-16.35696 10.25942,21.00205 14.08891,44.63251 10.00245,68.1708 z M -134.14842,114.07629 c 30.57994,0 55.456128,24.87902 55.456128,55.45896 0,10.98286 -3.223362,21.22551 -8.75668,29.85091 -9.217536,14.3766 -24.887358,24.231 -42.889518,25.46001 -1.25974,0.0838 -2.53065,0.14525 -3.80993,0.14525 -6.8154,0 -13.34311,-1.24298 -19.37921,-3.49989 a 55.771799,55.771799 0 0 1 -28.78392,-24.5159 55.095844,55.095844 0 0 1 -7.29583,-27.44038 c 0,-30.57994 24.87902,-55.45896 55.45896,-55.45896 z m 184.487943,54.93105 c 0,-27.78395 20.538391,-50.85298 47.224609,-54.84167 2.687048,-0.40502 5.435578,-0.61451 8.231578,-0.61451 17.77873,0 33.60779,8.4215 43.75828,21.47132 a 55.528791,55.528791 0 0 1 6.47462,10.51639 55.10981,55.10981 0 0 1 5.22329,23.46847 c 0,4.4328 -0.5363,8.74271 -1.5223,12.87664 -5.40484,22.62491 -24.69746,39.9204 -48.33909,42.3002 -1.83793,0.18435 -3.70379,0.27932 -5.5948,0.27932 a 55.120983,55.120983 0 0 1 -30.054837,-8.88516 c -15.267629,-9.89072 -25.40135,-27.0661 -25.40135,-46.571 z M 281.79796,103.05991 a 91.396256,91.396256 0 0 0 -25.11363,42.22479 851.34462,851.34462 0 0 0 -62.72968,0 c -4.69257,-17.40721 -14.41847,-32.76422 -27.5046,-44.42862 L 223.83631,-15.178984 Z M 34.605437,-183.29044 H 412.90794 L 323.55629,80.233892 a 90.720301,90.720301 0 0 0 -11.31524,3.505463 L 223.97597,-96.318618 135.4595,82.663974 A 90.784546,90.784546 0 0 0 123.65544,79.482521 Z M 400.29105,169.01012 c 0,5.55847 -0.82958,10.927 -2.35747,15.99665 a 55.67683,55.67683 0 0 1 -21.37633,29.45428 55.137742,55.137742 0 0 1 -31.72237,10.00524 c -25.60526,0 -47.20506,-17.44911 -53.55679,-41.07957 a 55.313714,55.313714 0 0 1 -1.89938,-14.3766 c 0,-7.58074 1.53068,-14.80954 4.29595,-21.39589 a 55.439408,55.439408 0 0 1 5.24561,-9.61419 c 9.98011,-14.73133 26.8203,-24.44608 45.91461,-24.44608 1.75134,0 3.47753,0.0894 5.18977,0.25139 28.15544,2.62281 50.26919,26.37338 50.26919,55.20477 z m 35.84511,0 c 0,-44.57386 -32.11619,-81.765299 -74.4164,-89.709157 L 462.90618,-219.13835 H -15.387243 L 85.955599,79.904293 C 45.12461,88.990569 14.497197,125.47813 14.497197,169.00734 c 0,32.686 17.273138,61.3945 43.160503,77.52802 -12.452085,18.55243 -27.216932,36.00991 -44.138134,51.97583 -26.837045,25.31477 -56.732652,44.51521 -88.96337,57.14885 -32.465306,-20.39315 -46.188286,-58.8527 -31.937396,-92.35432 l 1.11728,-2.62561 2.0949,-4.9272 c 35.657939,-12.43812 61.319054,-46.37548 61.319054,-86.21766 0,-50.34461 -40.956676,-91.301289 -91.298454,-91.301289 -50.34182,0 -91.30408,40.956679 -91.30408,91.301289 0,25.40973 10.44656,48.4201 27.25604,64.98935 a 1543.8847,1543.8847 0 0 1 -9.54716,19.85964 c -15.37097,31.56595 -32.78936,67.34402 -39.37851,107.07728 -13.08335,78.90786 8.02206,141.98667 59.43088,177.61392 31.19444,21.61936 62.8749,30.12185 94.753654,30.12185 60.025825,0 120.74997,-30.15816 180.141757,-59.65992 42.772279,-21.24229 87.002589,-43.21079 130.691009,-53.98695 16.25643,-4.00824 32.98209,-6.42157 50.69097,-8.97456 35.1189,-5.06686 71.43048,-10.3041 103.59696,-28.93195 37.2864,-21.597 62.80786,-57.8248 70.02549,-99.3876 6.1953,-35.6831 -1.25974,-71.42209 -19.44347,-101.73387 a 90.74544,90.74544 0 0 0 13.37104,-47.5151 z"
     fill="#ffffff"
     id="path4"
     style="stroke-width:2.7932" />
</svg>
