<?xml version="1.0" encoding="UTF-8" standalone="no"?>
<svg
   xmlns:dc="http://purl.org/dc/elements/1.1/"
   xmlns:cc="http://creativecommons.org/ns#"
   xmlns:rdf="http://www.w3.org/1999/02/22-rdf-syntax-ns#"
   xmlns:svg="http://www.w3.org/2000/svg"
   xmlns="http://www.w3.org/2000/svg"
   xmlns:sodipodi="http://sodipodi.sourceforge.net/DTD/sodipodi-0.dtd"
   xmlns:inkscape="http://www.inkscape.org/namespaces/inkscape"
   height="2500"
   viewBox="175.7 78 490.6 436.9"
   width="2194"
   version="1.1"
   id="svg8"
   sodipodi:docname="mui-5.svg"
   inkscape:version="0.92.4 (5da689c313, 2019-01-14)">
  <metadata
     id="metadata14">
    <rdf:RDF>
      <cc:Work
         rdf:about="">
        <dc:format>image/svg+xml</dc:format>
        <dc:type
           rdf:resource="http://purl.org/dc/dcmitype/StillImage" />
      </cc:Work>
    </rdf:RDF>
  </metadata>
  <defs
     id="defs12" />
  <sodipodi:namedview
     pagecolor="#ffffff"
     bordercolor="#666666"
     borderopacity="1"
     objecttolerance="10"
     gridtolerance="10"
     guidetolerance="10"
     inkscape:pageopacity="0"
     inkscape:pageshadow="2"
     inkscape:window-width="1143"
     inkscape:window-height="642"
     id="namedview10"
     showgrid="false"
     inkscape:zoom="0.13350176"
     inkscape:cx="830.34126"
     inkscape:cy="1590.9161"
     inkscape:window-x="0"
     inkscape:window-y="0"
     inkscape:window-maximized="0"
     inkscape:current-layer="svg8" />
  <path
     style="fill:#007fff;fill-opacity:1;stroke-width:0.77824366"
     d="m 482.08461,521.08341 c -4.75561,-1.84858 -124.14564,-70.59563 -126.16509,-72.64825 -1.24127,-1.26165 -2.60247,-3.53802 -3.02489,-5.05858 -0.4523,-1.62816 -0.76981,-17.09213 -0.77237,-37.61732 l -0.004,-34.85265 2.87667,-1.72481 c 1.58216,-0.94864 23.90803,-13.80703 49.61303,-28.5742 l 46.73637,-26.84941 0.20225,-35.86727 0.20225,-35.86726 -1.77726,-2.63728 c -2.72823,-4.04842 -6.41484,-6.1764 -10.70027,-6.1764 -3.89955,0 -1.04279,-1.55379 -68.47519,37.24361 -13.03874,7.50187 -14.76474,8.28364 -18.28873,8.28364 -3.67355,0 -6.02433,-1.22466 -42.02515,-21.89347 -20.97367,-12.04141 -38.97214,-22.32424 -39.9966,-22.85074 -2.76395,-1.42046 -9.47833,-0.62474 -12.42334,1.47229 -5.46089,3.88849 -5.12755,-0.40935 -5.55922,71.67781 -0.28258,47.19224 -0.63589,65.40948 -1.29046,66.53984 -3.69614,6.38267 -11.40629,8.49988 -18.26407,5.01531 -7.63623,-3.88012 -41.66879,-23.60373 -43.38894,-25.14611 -4.17407,-3.74271 -3.98548,1.70224 -3.98548,-115.06918 0,-68.48721 0.28091,-109.38003 0.76291,-111.0607 2.22789,-7.76815 11.34969,-11.58225 18.71442,-7.82504 1.68972,0.86203 34.48163,19.59387 72.87091,41.62631 38.38929,22.03244 71.04691,40.29315 72.57249,40.57935 1.73694,0.32585 3.9406,0.0954 5.89526,-0.61649 1.71681,-0.62527 33.93991,-18.83914 71.60691,-40.47526 37.66699,-21.63612 69.95987,-40.09054 71.76197,-41.00982 3.79261,-1.93468 8.69649,-2.16024 11.82234,-0.5438 3.65114,1.88807 6.92809,6.25432 7.45231,9.92952 0.26206,1.8372 0.37328,51.87006 0.24718,111.18413 l -0.2293,107.84375 -2.03269,3.05597 c -1.75706,2.64158 -7.24451,6.0496 -40.46867,25.13335 -21.13978,12.14256 -39.0847,22.64803 -39.87758,23.34547 -4.21688,3.70932 -5.09984,11.4226 -1.8629,16.27354 1.5824,2.37139 6.01686,5.22163 24.40992,15.68942 21.52322,12.24921 22.65771,12.79184 26.75657,12.79757 4.2018,0.006 5.09972,-0.46447 48.93565,-25.63261 24.56042,-14.10122 45.64808,-26.61615 46.86148,-27.81093 1.21339,-1.19478 2.56689,-3.47114 3.00777,-5.05858 0.49939,-1.7981 0.80969,-17.55665 0.82304,-41.79843 0.0199,-36.08438 0.12531,-39.13841 1.45091,-42.02516 0.78622,-1.71214 2.09181,-3.68266 2.90132,-4.37896 2.73908,-2.35598 44.09867,-25.76757 46.87697,-26.5347 5.16424,-1.42591 11.73989,1.8793 14.58912,7.33314 0.92186,1.76458 1.09788,13.59341 1.09788,73.77723 0,77.22132 0.18253,73.69237 -4.01184,77.56281 -1.89979,1.75307 -152.00704,88.15666 -157.47372,90.64383 -3.44273,1.56633 -6.01247,1.73732 -8.9498,0.59552 z M 594.22696,213.68987 c -6.91833,-4.2177 -7.21642,-5.80543 -6.92829,-36.90256 0.23459,-25.31899 0.26351,-25.72314 2.0461,-28.59014 1.47348,-2.36984 5.7728,-5.28915 23.22844,-15.77252 11.78117,-7.07543 22.69953,-13.14366 24.26302,-13.48495 5.47812,-1.19581 10.45658,0.97903 13.93269,6.0865 1.73327,2.5467 1.75105,2.84847 1.75105,29.72125 0,29.06523 -0.15096,30.34719 -3.98548,33.84656 -1.01824,0.92924 -11.26384,7.32056 -22.76799,14.20294 -19.76082,11.82195 -21.13697,12.51326 -24.9038,12.51051 -2.66108,-0.002 -4.86804,-0.53993 -6.63574,-1.61759 z"
     id="path832"
     inkscape:connector-curvature="0" />
</svg>
