<?xml version="1.0" encoding="UTF-8" standalone="no"?>
<svg
   height="2500"
   viewBox="0.15 0.13 799.7 800.01668"
   width="2500"
   version="1.1"
   id="svg4"
   sodipodi:docname="tailwind-css-2.svg"
   inkscape:version="1.1.1 (3bf5ae0d25, 2021-09-20)"
   xmlns:inkscape="http://www.inkscape.org/namespaces/inkscape"
   xmlns:sodipodi="http://sodipodi.sourceforge.net/DTD/sodipodi-0.dtd"
   xmlns="http://www.w3.org/2000/svg"
   xmlns:svg="http://www.w3.org/2000/svg">
  <defs
     id="defs8" />
  <sodipodi:namedview
     id="namedview6"
     pagecolor="#ffffff"
     bordercolor="#999999"
     borderopacity="1"
     inkscape:pageshadow="0"
     inkscape:pageopacity="0"
     inkscape:pagecheckerboard="0"
     showgrid="false"
     inkscape:zoom="0.150751"
     inkscape:cx="643.44516"
     inkscape:cy="1257.0398"
     inkscape:window-width="1920"
     inkscape:window-height="991"
     inkscape:window-x="-9"
     inkscape:window-y="-9"
     inkscape:window-maximized="1"
     inkscape:current-layer="svg4" />
  <path
     d="m 400,145.413 c -106.63,0 -173.27,53.29997 -199.93,159.88991 39.99,-53.3 86.64,-73.27995 139.95,-59.96 30.42,7.6 52.16,29.67 76.23,54.09 39.2,39.78 84.57,85.82 183.68,85.82 106.62,0 173.27,-53.3 199.92,-159.89995 -39.98,53.29995 -86.63,73.28995 -139.95,59.96995 -30.41,-7.6 -52.15,-29.67 -76.22,-54.08995 C 544.48,191.45297 499.1,145.413 400,145.413 Z M 200.07,385.25291 c -106.62,0 -173.27,53.3 -199.92,159.9 39.98,-53.3 86.63,-73.29 139.95,-59.96 30.41,7.61 52.15,29.67 76.22,54.08 39.2,39.78 84.58,85.83 183.68,85.83 106.63,0 173.27,-53.3 199.93,-159.9 -39.99,53.3 -86.64,73.29 -139.95,59.96 -30.42,-7.59 -52.16,-29.67 -76.23,-54.08 -39.2,-39.78 -84.57,-85.83 -183.68,-85.83 z"
     fill="#06b6d4"
     id="path2" />
</svg>
