<?xml version="1.0" encoding="UTF-8"?>
<!-- Created with Inkscape (http://www.inkscape.org/) -->
<svg width="210mm" height="297mm" enable-background="new" version="1.1" viewBox="0 0 210 297" xmlns="http://www.w3.org/2000/svg" xmlns:cc="http://creativecommons.org/ns#" xmlns:dc="http://purl.org/dc/elements/1.1/" xmlns:rdf="http://www.w3.org/1999/02/22-rdf-syntax-ns#">
 <defs>
  <filter id="filter2356" x="-.2666" y="-.18237" width="1.5332" height="1.3647" color-interpolation-filters="sRGB">
   <feGaussianBlur stdDeviation="20.573913"/>
  </filter>
 </defs>
 <metadata>
  <rdf:RDF>
   <cc:Work rdf:about="">
    <dc:format>image/svg+xml</dc:format>
    <dc:type rdf:resource="http://purl.org/dc/dcmitype/StillImage"/>
    <dc:title/>
   </cc:Work>
  </rdf:RDF>
 </metadata>
 <g>
  <path transform="matrix(.72794 0 0 .74846 25.515 36.991)" d="m126.4 13.38c-22.074 1.1295-44.205 1.1768-66.238 3.0488-9.0281 7.637-20.281 14.299-24.2 26.17-6.0573 8.8027-9.9741 19.038-10.074 29.784-1.7923 13.154-2.4698 26.439-2.5187 39.708-4.4738 3.3385-8.2834 9.241-5.8867 14.789 2.8809 15.934-0.66609 35.465 11.816 48.246 6.3193 6.8383 6.4673 16.672 10.672 24.671 2.8701 8.2789 8.4004 16.484 5.3809 25.431-1.9893 8.601-0.77721 18.78 7.0039 24.193 7.4223 5.6857 14.97 11.19 22.084 17.236 10.023 7.1304 20.789 13.757 32.539 17.473 13.48-0.64529 23.634-10.96 34.836-17.184 11.071-7.8004 23.541-15.844 29.818-28.156 1.3468-7.0854-0.83019-14.459-0.79687-21.326 8.5276-11.397 11.074-25.77 15.781-38.818 5.7473-4.941 10.042-11.444 11.49-18.98 2.0849-12.596 2.9514-25.382 3.8496-38.109-0.49694-2.884 1.2294-9.3262-3.457-7.2207-4.7307-0.70104-1.0305-6.5536-1.6191-9.5332-0.0745-14.864-2.0206-29.655-5.3496-44.121-4.8544-21.498-23.761-37.388-44.305-43.238-6.9254-1.4651-13.88-2.7939-20.826-4.0625z" fill="#fff" filter="url(#filter2356)" opacity=".503"/>
  <path d="m56.558 215.07-0.5194 4.7236-0.6493 4.0581-0.081 4.7885-0.8927 3.7334 0.9739 3.8957 2.1102 3.6522 9.4421 6.8908 8.9528 7.5754 10.33 7.1163 11.248 5.9685 4.8207 2.5251 5.0503-0.22957 13.085-7.1163 16.528-11.019 9.871-8.2641 6.6572-7.1163 0.4591-8.0346-1.8318-11.205 2.9222-3.2574 4.2361-8.6281 5.9219-16.853 1.9444-7.3576 4.0241-2.9726 4.3616-6.6572 2.5252-14.921 0.5739-8.4937 0.2295-4.4764c0.3061-1.913 1.1175-6.346 0.7154-9.6753l-3.6274-1.4737-1.7081-1.9489 1.2915-9.0545-1.6069-20.086-1.6069-9.7562-3.0505-12.828-6.9798-11.444-7.6292-6.8987-13.067-7.8726-21.498-4.5729-54.631 2.1381-13.96 11.363-4.9509 9.3335-5.9247 10.226-2.6008 16.983-1.2626 17.906-0.5205 9.4156 1.3441 4.9846-5.3 2.5871-1.1478 5.9685 1.3774 9.2971 0.5739 11.363 2.1808 11.363 4.0172 6.772 4.0977 3.4317 4.5108 13.441 5.3946 14.118 3.2752 6.5939" fill="#fff"/>
  <path transform="matrix(.8589 0 0 .8589 12.536 9.2526)" d="m42.429 129.82c1.0186-2.4317 2.8908-4.4959 5.2118-5.7463 2.9357-1.5816 6.3968-1.8294 9.7312-1.7874 3.3344 0.0419 6.7036 0.33705 9.9799-0.28389 3.7247-0.70591 7.1983-2.575 10.976-2.895 1.8887-0.15999 3.8565 0.0951 5.5056 1.0297 0.82452 0.46733 1.5592 1.1014 2.1082 1.8739 0.54905 0.77252 0.9087 1.6849 0.99311 2.6289 0.14672 1.641-0.58972 3.3348-1.8899 4.3467-6.4084-0.56304-12.844-0.81541-19.277-0.75595-7.8018 0.0721-15.599 0.6031-23.339 1.5893z" fill="#e2e2e2"/>
  <path transform="matrix(.8589 0 0 .8589 12.536 8.6787)" d="m41.961 126.88c3.1394-3.8122 6.8868-7.3052 11.493-9.0872 3.1252-1.2091 6.5172-1.5791 9.868-1.6016 3.3509-0.0224 6.6943 0.29121 10.044 0.39884 5.3856 0.17307 10.903-0.16971 16.036 1.47 1.1736 0.37492 2.3211 0.85421 3.3563 1.5223 1.0352 0.66812 1.9576 1.5316 2.6013 2.5822 0.64373 1.0505 0.99772 2.2947 0.89663 3.5226-0.10109 1.2279-0.67893 2.4295-1.6425 3.1972-0.72525 0.57788-1.6288 0.89209-2.5391 1.0691-2.1114 0.41054-4.3025 0.12956-6.3882-0.39656-2.0857-0.52613-4.1027-1.2932-6.1735-1.8752-4.8478-1.3625-9.9322-1.6934-14.967-1.6036-7.0703 0.12612-14.126 1.0698-20.981 2.8063-0.03487 0.27454-0.16442 0.53615-0.36163 0.7303s-0.46083 0.31958-0.73588 0.35014c-0.27505 0.0306-0.55977-0.0339-0.79479-0.18006-0.23502-0.14612-0.41884-0.37291-0.51313-0.6331-0.07175-0.198-0.09219-0.41288-0.07163-0.62248 0.02056-0.20959 0.08135-0.41412 0.16703-0.6065 0.17136-0.38477 0.43865-0.71768 0.70641-1.0428z" stroke="#000" stroke-width=".26458px"/>
 </g>
 <g fill="none">
  <g stroke-width="3.1279">
   <path transform="matrix(.76886 0 0 .76886 -13.69 20.215)" d="m75.69 138.25c0.49832-0.96016 1.2144-1.8065 2.0789-2.4568 0.99474-0.74841 2.1694-1.2302 3.3737-1.5455 1.2042-0.31532 2.4438-0.47057 3.68-0.61735 5.2853-0.62757 10.587-1.1151 15.897-1.4785 5.8848-0.40274 11.788-0.65308 17.682-0.42186 3.9508 0.15499 7.8914 0.52619 11.812 1.0394 2.0633 0.27012 4.1226 0.57979 6.1615 0.99579 1.7238 0.35171 3.5104 0.81957 4.8108 2.0045 0.75559 0.68849 1.3016 1.5857 1.6704 2.5391 0.6125 1.5833 0.75015 3.3156 0.66818 5.0113-0.0892 1.8456-0.4296 3.6692-0.80181 5.479-0.43986 2.1388-0.92635 4.2718-1.6036 6.3476-0.44963 1.3781-0.98424 2.7321-1.6704 4.009-0.56741 1.0559-1.2548 2.0755-2.205 2.8063-1.0288 0.79127-2.2977 1.1945-3.5494 1.5375-1.7804 0.48789-3.5856 0.88411-5.4041 1.202-3.1148 0.54454-6.2662 0.85905-9.4213 1.0691-3.7105 0.24701-7.4291 0.35008-11.147 0.42383-3.8342 0.0761-7.6698 0.12099-11.504 0.0439-2.9427-0.0592-5.8841-0.19023-8.8199-0.4009-2.2074-0.1584-4.4578-0.37335-6.4813-1.2695-1.0596-0.46932-2.0475-1.1286-2.8063-2.0045-0.46694-0.53899-0.84248-1.1541-1.1359-1.8041-0.77119-1.7084-0.96567-3.6124-1.1359-5.479-0.25872-2.837-0.48455-5.6784-0.57322-8.5259-0.05935-1.906-0.05711-3.816 0.09449-5.7169 0.07441-0.93298 0.18476-1.8631 0.33073-2.7876z" stroke="#e2e2e2"/>
   <path transform="matrix(.76886 0 0 .76886 -14.065 18.222)" d="m75.69 138.25c0.49832-0.96016 1.2144-1.8065 2.0789-2.4568 0.99474-0.74841 2.1694-1.2302 3.3737-1.5455 1.2042-0.31532 2.4438-0.47057 3.68-0.61735 5.2853-0.62757 10.587-1.1151 15.897-1.4785 5.8848-0.40274 11.788-0.65308 17.682-0.42186 3.9508 0.15499 7.8914 0.52619 11.812 1.0394 2.0633 0.27012 4.1226 0.57979 6.1615 0.99579 1.7238 0.35171 3.5104 0.81957 4.8108 2.0045 0.75559 0.68849 1.3016 1.5857 1.6704 2.5391 0.6125 1.5833 0.75015 3.3156 0.66818 5.0113-0.0892 1.8456-0.4296 3.6692-0.80181 5.479-0.43986 2.1388-0.92635 4.2718-1.6036 6.3476-0.44963 1.3781-0.98424 2.7321-1.6704 4.009-0.56741 1.0559-1.2548 2.0755-2.205 2.8063-1.0288 0.79127-2.2977 1.1945-3.5494 1.5375-1.7804 0.48789-3.5856 0.88411-5.4041 1.202-3.1148 0.54454-6.2662 0.85905-9.4213 1.0691-3.7105 0.24701-7.4291 0.35008-11.147 0.42383-3.8342 0.0761-7.6698 0.12099-11.504 0.0439-2.9427-0.0592-5.8841-0.19023-8.8199-0.4009-2.2074-0.1584-4.4578-0.37335-6.4813-1.2695-1.0596-0.46932-2.0475-1.1286-2.8063-2.0045-0.46694-0.53899-0.84248-1.1541-1.1359-1.8041-0.77119-1.7084-0.96567-3.6124-1.1359-5.479-0.25872-2.837-0.48455-5.6784-0.57322-8.5259-0.05935-1.906-0.05711-3.816 0.09449-5.7169 0.07441-0.93298 0.18476-1.8631 0.33073-2.7876z" stroke="#000"/>
   <path transform="matrix(-.76886 0 0 .76886 225.25 20.215)" d="m75.69 138.25c0.49832-0.96016 1.2144-1.8065 2.0789-2.4568 0.99474-0.74841 2.1694-1.2302 3.3737-1.5455 1.2042-0.31532 2.4438-0.47057 3.68-0.61735 5.2853-0.62757 10.587-1.1151 15.897-1.4785 5.8848-0.40274 11.788-0.65308 17.682-0.42186 3.9508 0.15499 7.8914 0.52619 11.812 1.0394 2.0633 0.27012 4.1226 0.57979 6.1615 0.99579 1.7238 0.35171 3.5104 0.81957 4.8108 2.0045 0.75559 0.68849 1.3016 1.5857 1.6704 2.5391 0.6125 1.5833 0.75015 3.3156 0.66818 5.0113-0.0892 1.8456-0.4296 3.6692-0.80181 5.479-0.43986 2.1388-0.92635 4.2718-1.6036 6.3476-0.44963 1.3781-0.98424 2.7321-1.6704 4.009-0.56741 1.0559-1.2548 2.0755-2.205 2.8063-1.0288 0.79127-2.2977 1.1945-3.5494 1.5375-1.7804 0.48789-3.5856 0.88411-5.4041 1.202-3.1148 0.54454-6.2662 0.85905-9.4213 1.0691-3.7105 0.24701-7.4291 0.35008-11.147 0.42383-3.8342 0.0761-7.6698 0.12099-11.504 0.0439-2.9427-0.0592-5.8841-0.19023-8.8199-0.4009-2.2074-0.1584-4.4578-0.37335-6.4813-1.2695-1.0596-0.46932-2.0475-1.1286-2.8063-2.0045-0.46694-0.53899-0.84248-1.1541-1.1359-1.8041-0.77119-1.7084-0.96567-3.6124-1.1359-5.479-0.25872-2.837-0.48455-5.6784-0.57322-8.5259-0.05935-1.906-0.05711-3.816 0.09449-5.7169 0.07441-0.93298 0.18476-1.8631 0.33073-2.7876z" stroke="#e2e2e2"/>
  </g>
  <path transform="matrix(.75115 .022215 -.022884 .77378 -8.1649 13.795)" d="m143.73 140.33 22.868-0.56697" stroke="#000" stroke-linecap="round" stroke-width="3.1531"/>
 </g>
 <path transform="matrix(.8589 0 0 .8589 14.159 9.0903)" d="m89.803 191.16c-0.39944 0.21175-0.71768 0.56101-0.92772 0.96135s-0.31579 0.85006-0.34728 1.301c-0.063 0.90199 0.16262 1.7954 0.33956 2.6821 0.32733 1.6404 0.50785 3.3577 1.3363 4.8108 0.58437 1.025 1.4796 1.8698 2.5361 2.395 1.0565 0.52517 2.2701 0.72878 3.4404 0.57843 1.1702-0.15035 2.2926-0.65388 3.1838-1.4271 0.89122-0.77319 1.548-1.8129 1.8645-2.9495 0.3074-1.1037 0.29168-2.304-0.0993-3.3809-0.39099-1.0769-1.1648-2.0206-2.1725-2.5658-0.6747-0.36507-1.4313-0.54747-2.1826-0.70268-0.75127-0.1552-1.5125-0.28847-2.2274-0.56685-0.78784-0.30681-1.5008-0.78296-2.2873-1.0932-0.39324-0.15514-0.8066-0.26844-1.2287-0.29066-0.42215-0.0222-0.85452 0.05-1.228 0.24799z" fill="#e2e2e2"/>
 <path transform="matrix(-.85166 .1113 .1113 .85166 173.55 .90471)" d="m89.803 191.16c-0.39944 0.21175-0.71768 0.56101-0.92772 0.96135s-0.31579 0.85006-0.34728 1.301c-0.063 0.90199 0.16262 1.7954 0.33956 2.6821 0.32733 1.6404 0.50785 3.3577 1.3363 4.8108 0.58437 1.025 1.4796 1.8698 2.5361 2.395 1.0565 0.52517 2.2701 0.72878 3.4404 0.57843 1.1702-0.15035 2.2926-0.65388 3.1838-1.4271 0.89122-0.77319 1.548-1.8129 1.8645-2.9495 0.3074-1.1037 0.29168-2.304-0.0993-3.3809-0.39099-1.0769-1.1648-2.0206-2.1725-2.5658-0.6747-0.36507-1.4313-0.54747-2.1826-0.70268-0.75127-0.1552-1.5125-0.28847-2.2274-0.56685-0.78784-0.30681-1.5008-0.78296-2.2873-1.0932-0.39324-0.15514-0.8066-0.26844-1.2287-0.29066-0.42215-0.0222-0.85452 0.05-1.228 0.24799z" fill="#e2e2e2"/>
 <g stroke="#000">
  <rect x="34.871" y="125.15" width="8.4283" height="7.0971" ry="4.3369e-13" stroke-dashoffset="37.795" stroke-linecap="round" stroke-linejoin="round" stroke-width="2.2032"/>
  <path transform="matrix(.71407 0 0 .9081 -5.723 -17.718)" d="m135.32 249.94c-0.27169 0.57337-0.30567 1.2448-0.14955 1.8598s0.49387 1.175 0.92209 1.6432c0.85643 0.93638 2.0375 1.4963 3.1844 2.0393 3.1957 1.5128 6.4014 3.081 9.8392 3.9072 3.2999 0.79302 6.8573 0.86235 10.016-0.37798 2.2861-0.89759 4.2665-2.4338 6.4986-3.4584 1.313-0.60275 2.7344-1.0416 3.8447-1.966 0.55514-0.46222 1.0222-1.0477 1.2642-1.7283 0.24197-0.68065 0.24275-1.461-0.0792-2.1077-0.33799-0.67885-1.0067-1.16-1.7363-1.3668-0.72962-0.20671-1.514-0.15856-2.2482 0.0314-1.4683 0.37987-2.7347 1.2941-4.131 1.8862-2.8552 1.2107-6.0758 1.0196-9.1769 1.0556-3.1937 0.037-6.5112 0.31667-9.468-0.89086-1.4862-0.60693-2.8286-1.574-4.3837-1.9724-0.77754-0.19919-1.6085-0.24747-2.3792-0.023-0.3853 0.11225-0.75221 0.29234-1.0675 0.54064-0.31529 0.2483-0.57814 0.56553-0.74999 0.9282z" stroke-width=".26458px"/>
  <path transform="matrix(.85858 0 0 .78108 14.356 26.384)" d="m90.738 180.74c-1.1782 0.0919-2.3159 0.63328-3.1304 1.4896s-1.2982 2.0196-1.331 3.201c-0.03282 1.1814 0.38558 2.3697 1.1513 3.27 0.7657 0.90023 1.8715 1.5039 3.0429 1.6611 0.64471 0.0865 1.2986 0.0423 1.9491 0.0321s1.3139 0.0161 1.9264 0.23514c0.51919 0.18571 0.98428 0.50542 1.379 0.89043 0.39473 0.38502 0.72176 0.83466 1.0097 1.3049 0.57586 0.94052 1.0019 1.9697 1.6203 2.8828 1.5097 2.2287 4.1688 3.611 6.8605 3.6388 2.6917 0.0278 5.3506-1.2738 7.0375-3.3716 0.76516-0.95147 1.3342-2.0442 2.0445-3.0372s1.61-1.9162 2.7663-2.3082c0.74396-0.25222 1.545-0.2682 2.3305-0.26118 0.78553 7e-3 1.5805 0.0336 2.3467-0.13973 0.83238-0.18832 1.6094-0.6151 2.2149-1.2165 0.60549-0.60143 1.0375-1.3756 1.2314-2.2066 0.19392-0.8311 0.14914-1.7165-0.12764-2.5238-0.27679-0.80728-0.78469-1.5339-1.4478-2.0711 0.47728 0.61278 0.75231 1.3805 0.77272 2.1569 0.0204 0.77646-0.2139 1.5575-0.65832 2.1946-0.44443 0.63701-1.0966 1.1266-1.8324 1.3754-0.73577 0.24888-1.5512 0.25578-2.2911 0.0194-0.87699-0.28021-1.6368-0.88593-2.5391-1.0691-0.47362-0.0961-0.96889-0.0694-1.4361 0.054-0.46726 0.12339-0.90693 0.34192-1.302 0.62034-0.79004 0.55683-1.3926 1.3412-1.9006 2.1634-0.50805 0.82227-0.93382 1.6934-1.4479 2.5119s-1.1292 1.5948-1.9314 2.134c-0.70638 0.47474-1.5408 0.74936-2.389 0.82015-0.84814 0.0708-1.7088-0.0594-2.5101-0.34628-1.6025-0.57384-2.9364-1.7579-3.9208-3.1466-0.38741-0.54653-0.72622-1.1265-1.1199-1.6685-0.39371-0.54201-0.84995-1.0518-1.4191-1.4051-0.53562-0.33247-1.1536-0.51467-1.7772-0.60705-0.62361-0.0924-1.2564-0.0983-1.8869-0.10059-0.63041-2e-3 -1.2628-1e-3 -1.8883-0.0799-0.62549-0.0787-1.2478-0.24007-1.7975-0.54876-0.59318-0.33313-1.0897-0.83606-1.4153-1.4334-0.32555-0.59737-0.47904-1.2873-0.43746-1.9663 0.04157-0.67906 0.27808-1.3451 0.67407-1.8983s0.9502-0.9918 1.5796-1.2501z" stroke-width=".26458px"/>
 </g>
 <g>
  <path transform="matrix(.8589 0 0 1.3514 12.651 -96.956)" d="m85.66 217.75c8.9888 2.1571 18.414 2.4774 27.529 0.93545 1.9139-0.32377 3.8163-0.72886 5.7463-0.93545 3.0751-0.32916 6.2043-0.14776 9.2208 0.53454-2.7835 0.14622-5.5559 0.50395-8.2854 1.0691-2.7728 0.57411-5.4999 1.3615-8.2854 1.8709-8.7194 1.5945-17.933 0.35966-25.925-3.4745z" fill="#e2e2e2"/>
  <path transform="matrix(.8589 0 0 .8589 12.536 10.162)" d="m85.66 217.75c8.9888 2.1571 18.414 2.4774 27.529 0.93545 1.9139-0.32377 3.8163-0.72886 5.7463-0.93545 3.0751-0.32916 6.2043-0.14776 9.2208 0.53454-2.7835 0.14622-5.5559 0.50395-8.2854 1.0691-2.7728 0.57411-5.4999 1.3615-8.2854 1.8709-8.7194 1.5945-17.933 0.35966-25.925-3.4745z" stroke="#000" stroke-width=".26458px"/>
  <path d="m71.571 230.05c1.311 4.7792-6.814-5.4854-4.5678-1.3077 3.8132 7.0921 8.8249 13.004 14.046 18.455 4.7296 4.9374 9.7956 9.634 15.644 11.916 2.8656 1.118 5.8876 1.6058 8.8823 1.4435 2.9946 0.1624 6.0166-0.32547 8.8822-1.4435 5.8488-2.2819 10.915-6.9785 15.644-11.916 5.2209-5.4502 10.233-11.362 14.046-18.455 2.2462-4.1778-14.101 13.062-12.79 8.2828-2.4787 5.7274 12.276-10.993 8.2219-6.9751-2.5996 2.5769-5.4486 4.7104-8.2219 6.9751-1.4114 1.1525-2.8095 2.344-4.3169 3.2789-1.5075 0.93495-3.1417 1.6118-4.8183 1.6619-1.6571 0.0495-3.2828-0.51015-4.8984-0.9823-1.6156-0.47353-3.2934-0.86124-4.9225-0.47096-1.2841 0.30767-2.4645 1.0825-3.6343 1.8235-1.0238 0.64843-2.0759 1.2856-3.1923 1.5664-1.1165-0.28088-2.1686-0.918-3.1924-1.5664-1.1698-0.74093-2.3502-1.5158-3.6343-1.8235-1.6291-0.39029-3.3069-8.6e-4 -4.9225 0.47096-1.6156 0.47215-3.2413 1.0318-4.8984 0.9823-1.6766-0.0501-3.3108-0.72692-4.8183-1.6619-1.5074-0.93496-2.9055-2.1264-4.3169-3.2789-2.7734-2.2646-5.6223-4.3982-8.2219-6.9751-4.0536-4.0181 2.4786 5.7274 0 0z" fill="#e2e2e2" stroke="#e2e2e2" stroke-width=".18034px"/>
 </g>
 <path d="m105.56 46.256c-7.468 0.11208-14.786 0.50614-22.181 2.0093-8.788 1.7863-17.284 5.4828-24.864 10.274-5.3231 3.3647-9.5321 8.4097-13.152 13.563-3.9443 5.6152-7.1571 11.896-9.0417 18.494-1.853 6.4882-2.0079 13.39-2.055 20.138-0.028 4.0054 0.2547 8.0455 1.0528 11.971 0.7355 3.6174 2.0246 5.899 1.9982 9.5903-0.01 1.2789-0.3104 3.6986-0.6178 4.94-0.5187 2.0947-0.4074 3.8279-0.5774 5.9791-0.126 1.5934 0.2278 3.2535 0.3595 4.8464 0.2481 3.0006 0.8624 5.9634 1.4838 8.9094 1.1965 5.6733 2.8769 11.234 4.3151 16.85 1.0961 4.2811 2.1259 8.5796 3.288 12.843 1.1345 4.1622 2.0599 8.4011 3.5961 12.432 0.9601 2.5194 2.3443 4.8562 3.4936 7.2951 1.162 2.4661 2.017 5.0944 3.4398 7.4199 2.9531 4.8267 6.6891 9.1514 10.462 13.368 4.4305 4.9519 8.8293 10.092 14.24 13.949 4.7621 3.3951 10.044 6.3328 15.693 7.8464 2.9332 0.78588 6.0025 1.1832 9.0675 1.2117 3.0649-0.0286 6.1343-0.42583 9.0674-1.2117 5.6491-1.5136 10.931-4.4512 15.693-7.8464 5.4104-3.8573 9.8092-8.9974 14.24-13.949 3.773-4.217 7.5089-8.5417 10.462-13.368 1.4228-2.3255 2.2778-4.9538 3.4399-7.4199 1.1492-2.4389 2.5335-4.7758 3.4935-7.2951 1.5362-4.0312 2.4617-8.2701 3.5961-12.432 1.1621-4.2636 2.1919-8.5622 3.2881-12.843 1.4381-5.6169 3.1186-11.177 4.3151-16.85 0.6213-2.946 1.2357-5.9088 1.4838-8.9094 0.1317-1.5929 0.4854-3.253 0.3595-4.8464-0.1701-2.1512-0.059-3.8844-0.5775-5.9791-0.3074-1.2414-0.6087-3.6611-0.6178-4.94-0.026-3.6913 1.2627-5.9729 1.9982-9.5903 0.7981-3.9252 1.0808-7.9652 1.0528-11.971-0.047-6.7475-0.2019-13.65-2.055-20.138-1.8845-6.5982-5.0973-12.879-9.0417-18.494-3.6197-5.153-7.8287-10.198-13.152-13.563-7.5803-4.7914-16.077-8.4879-24.864-10.274-7.3951-1.5032-14.713-1.8972-22.181-2.0093z" fill-opacity="0" stroke="#000" stroke-width="2.4333"/>
 <path transform="matrix(.70756 .083351 -.085857 .76398 -2.9584 8.347)" d="m95.958 35.893c0.96185 2.4964 2.5317 4.756 4.5356 6.5284 2.123 1.8778 4.6948 3.1906 7.3583 4.1597s5.4325 1.6103 8.187 2.278c6.1946 1.5017 12.366 3.1516 18.665 4.1243 12.108 1.8696 24.488 1.2015 36.616-0.53454 4.2261-0.60494 8.4511-1.3429 12.511-2.6639 4.0597-1.3209 7.9672-3.2462 11.205-6.0286 1.519-1.3053 2.8901-2.8028 3.9123-4.5251 1.0222-1.7223 1.687-3.6786 1.7573-5.6802 0.078-2.2189-0.57871-4.4302-1.6838-6.356s-2.6448-3.578-4.3638-4.9833c-3.4931-2.8557-7.7418-4.7201-12.154-5.6639-4.412-0.94382-8.9873-0.98835-13.466-0.44348-8.9577 1.0897-17.446 4.4787-25.903 7.6261-11.499 4.2796-23.266 8.1926-35.474 9.4287-3.3106 0.33522-6.7111 0.48791-9.785 1.7622-0.66268 0.27472-1.3045 0.59982-1.918 0.97158z" fill="#e2e2e2"/>
 <g stroke="#000">
  <path transform="matrix(.76886 0 0 .76886 -12.302 17.407)" d="m75.973 71.726c2.9858-9.1874 10.154-16.924 19.088-20.6 6.5808-2.708 13.93-3.2495 20.978-2.2679 6.3134 0.87934 12.403 2.9346 18.665 4.1243 12.051 2.2895 24.491 1.3289 36.616-0.53454 8.4309-1.2957 17.186-3.2047 23.716-8.6924 1.5376-1.2922 2.9332-2.7767 3.9647-4.5001 1.0315-1.7233 1.6886-3.6969 1.7049-5.7053 0.0178-2.202-0.73266-4.3618-1.8601-6.2534-1.1274-1.8915-2.621-3.5384-4.1875-5.0859-10.467-10.34-24.671-16.672-39.31-18.143-11.649-1.1706-23.565 0.66016-34.399 5.1005-10.833 4.4403-20.573 11.468-28.345 20.224-8.4697 9.5425-14.671 21.357-16.253 34.018-0.34433 2.7561-0.47084 5.5395-0.37798 8.3155z" stroke-width=".26458px"/>
  <path d="m51.282 56.851c-3.9917 3.6089-4.7377 9.6652-7.2373 14.431-1.8727 3.5704-4.4837 6.8007-5.8122 10.607-2.2325 6.3968-3.0788 13.266-3.4447 20.031-0.419 7.7454 1.4468 23.225 1.4468 23.225l1.3441 4.9846s-0.1233-9.3282 0.5137-13.931c0.6252-4.5183 2.8087-8.7558 3.2281-13.298 0.3501-3.791-0.6087-7.5976-0.6164-11.405-0.01-2.7433-0.264-5.5607 0.4109-8.2197 0.9158-3.608 2.9751-6.8413 4.8291-10.069 2.0181-3.5135 3.9737-7.178 6.8189-10.063 6.1801-6.266 25.768-7.3331 21.65-15.112-3.8601-7.2932-17.01 3.2841-23.132 8.818z" stroke-width=".20343px"/>
  <path transform="matrix(.76886 0 0 .76886 -10.007 17.741)" d="m239.63 146.39c0.65126-3.0677 1.1796-6.1615 1.5834-9.2715 0.95752-7.3749 1.2128-14.825 1.2046-22.262-8e-3 -6.949-0.25185-13.956-1.8709-20.713-3.1359-13.089-11.266-24.49-20.713-34.077-3.9871-4.0456-8.2429-7.8378-12.844-11.169-12.345-8.9374-27.159-14.427-42.347-15.692-0.21789 1.7145 0.0733 3.4904 0.82729 5.0455s1.968 2.8836 3.449 3.7744c1.3246 0.79668 2.8424 1.2402 4.3776 1.421 1.5351 0.18077 3.0911 0.1057 4.6253-0.08222 3.0686-0.37584 6.083-1.201 9.1714-1.3387 5.1654-0.23028 10.277 1.496 14.726 4.1308s8.307 6.1491 12.001 9.7672c8.1931 8.0251 15.992 17.123 18.976 28.197 1.2698 4.7112 1.6175 9.6127 2.3094 14.443 0.66248 4.6242 1.6433 9.1961 2.4568 13.796 1.5981 9.036 2.5505 18.186 2.8476 27.358" stroke-width=".26458px"/>
  <path d="m51.017 205.12c1.6149 4.7792 3.8446 9.3365 6.6116 13.514 4.6973 7.0921 10.871 13.004 17.302 18.455 5.8262 4.9374 12.067 9.634 19.272 11.916 3.53 1.118 7.2527 1.6058 10.942 1.4435 3.6889 0.1624 7.4116-0.32547 10.942-1.4435 7.2048-2.2819 13.445-6.9785 19.272-11.916 6.4313-5.4502 12.605-11.363 17.302-18.455 2.767-4.1778 4.9967-8.7351 6.6116-13.514-3.0533 5.7274-7.2451 10.804-12.238 14.822-3.2023 2.5769-6.7119 4.7104-10.128 6.9751-1.7387 1.1525-3.4609 2.344-5.3179 3.2789-1.857 0.93494-3.87 1.6118-5.9353 1.6619-2.0414 0.0495-4.0439-0.51015-6.0341-0.9823-1.9902-0.47353-4.0571-0.86124-6.0638-0.47096-1.5818 0.30767-3.0359 1.0825-4.4769 1.8235-1.2612 0.64843-2.5572 1.2856-3.9325 1.5664-1.3754-0.28088-2.6714-0.918-3.9326-1.5664-1.441-0.74093-2.8951-1.5158-4.4769-1.8235-2.0067-0.39028-4.0736-8.6e-4 -6.0638 0.47096-1.9901 0.47215-3.9927 1.0318-6.0341 0.9823-2.0653-0.0501-4.0783-0.72692-5.9353-1.6619-1.857-0.93497-3.5792-2.1264-5.3179-3.2789-3.4163-2.2646-6.9258-4.3982-10.128-6.9751-4.9933-4.0181-9.1851-9.0945-12.238-14.822z" stroke-width=".20016px"/>
 </g>
 <path transform="matrix(-.8589 0 0 .8589 198.24 9.6843)" d="m42.429 129.82c1.0186-2.4317 2.8908-4.4959 5.2118-5.7463 2.9357-1.5816 6.3968-1.8294 9.7312-1.7874 3.3344 0.0419 6.7036 0.33705 9.9799-0.28389 3.7247-0.70591 7.1983-2.575 10.976-2.895 1.8887-0.15999 3.8565 0.0951 5.5056 1.0297 0.82452 0.46733 1.5592 1.1014 2.1082 1.8739 0.54905 0.77252 0.9087 1.6849 0.99311 2.6289 0.14672 1.641-0.58972 3.3348-1.8899 4.3467-6.4084-0.56304-12.844-0.81541-19.277-0.75595-7.8018 0.0721-15.599 0.6031-23.339 1.5893z" fill="#e2e2e2"/>
 <g stroke="#000">
  <path transform="matrix(-.76886 0 0 .76886 224.88 18.222)" d="m75.69 138.25c0.49832-0.96016 1.2144-1.8065 2.0789-2.4568 0.99474-0.74841 2.1694-1.2302 3.3737-1.5455 1.2042-0.31532 2.4438-0.47057 3.68-0.61735 5.2853-0.62757 10.587-1.1151 15.897-1.4785 5.8848-0.40274 11.788-0.65308 17.682-0.42186 3.9508 0.15499 7.8914 0.52619 11.812 1.0394 2.0633 0.27012 4.1226 0.57979 6.1615 0.99579 1.7238 0.35171 3.5104 0.81957 4.8108 2.0045 0.75559 0.68849 1.3016 1.5857 1.6704 2.5391 0.6125 1.5833 0.75015 3.3156 0.66818 5.0113-0.0892 1.8456-0.4296 3.6692-0.80181 5.479-0.43986 2.1388-0.92635 4.2718-1.6036 6.3476-0.44963 1.3781-0.98424 2.7321-1.6704 4.009-0.56741 1.0559-1.2548 2.0755-2.205 2.8063-1.0288 0.79127-2.2977 1.1945-3.5494 1.5375-1.7804 0.48789-3.5856 0.88411-5.4041 1.202-3.1148 0.54454-6.2662 0.85905-9.4213 1.0691-3.7105 0.24701-7.4291 0.35008-11.147 0.42383-3.8342 0.0761-7.6698 0.12099-11.504 0.0439-2.9427-0.0592-5.8841-0.19023-8.8199-0.4009-2.2074-0.1584-4.4578-0.37335-6.4813-1.2695-1.0596-0.46932-2.0475-1.1286-2.8063-2.0045-0.46694-0.53899-0.84248-1.1541-1.1359-1.8041-0.77119-1.7084-0.96567-3.6124-1.1359-5.479-0.25872-2.837-0.48455-5.6784-0.57322-8.5259-0.05935-1.906-0.05711-3.816 0.09449-5.7169 0.07441-0.93298 0.18476-1.8631 0.33073-2.7876z" fill="none" stroke-width="3.1279"/>
  <rect transform="scale(-1,1)" x="-175.94" y="125.15" width="8.4283" height="7.0971" ry="4.3369e-13" stroke-dashoffset="37.795" stroke-linecap="round" stroke-linejoin="round" stroke-width="2.2032"/>
  <path transform="matrix(-.8589 0 0 .8589 198.28 8.6787)" d="m41.961 126.88c3.1394-3.8122 6.8868-7.3052 11.493-9.0872 3.1252-1.2091 6.5172-1.5791 9.868-1.6016 3.3509-0.0224 6.6943 0.29121 10.044 0.39884 5.3856 0.17307 10.903-0.16971 16.036 1.47 1.1736 0.37492 2.3211 0.85421 3.3563 1.5223 1.0352 0.66812 1.9576 1.5316 2.6013 2.5822 0.64373 1.0505 0.99772 2.2947 0.89663 3.5226-0.10109 1.2279-0.67893 2.4295-1.6425 3.1972-0.72525 0.57788-1.6288 0.89209-2.5391 1.0691-2.1114 0.41054-4.3025 0.12956-6.3882-0.39656-2.0857-0.52613-4.1027-1.2932-6.1735-1.8752-4.8478-1.3625-9.9322-1.6934-14.967-1.6036-7.0703 0.12612-14.126 1.0698-20.981 2.8063-0.03487 0.27454-0.16442 0.53615-0.36163 0.7303s-0.46083 0.31958-0.73588 0.35014c-0.27505 0.0306-0.55977-0.0339-0.79479-0.18006-0.23502-0.14612-0.41884-0.37291-0.51313-0.6331-0.07175-0.198-0.09219-0.41288-0.07163-0.62248 0.02056-0.20959 0.08135-0.41412 0.16703-0.6065 0.17136-0.38477 0.43865-0.71768 0.70641-1.0428z" stroke-width=".26458px"/>
 </g>
 <g fill="none" stroke="#000" stroke-width="2.8">
  <path transform="matrix(.8589 0 0 .8589 12.536 9.2526)" d="m28.464 144.19c-0.396-0.75957-1.0951-1.3556-1.9078-1.6265-0.81265-0.27088-1.7296-0.21352-2.5022 0.15654-0.66685 0.31943-1.2155 0.8579-1.6104 1.483-0.3949 0.62512-0.64229 1.3348-0.79504 2.0583-0.51459 2.4372 0.0237 4.9545 0.4009 7.4167 1.0911 7.1219 0.8242 14.377 1.3943 21.56 0.55049 6.9355 2.0265 14.123 6.4161 19.521 1.6739 2.0583 3.737 3.799 6.0476 5.1027"/>
  <path transform="matrix(-.8589 0 0 .8589 197.98 9.2526)" d="m28.464 144.19c-0.396-0.75957-1.0951-1.3556-1.9078-1.6265-0.81265-0.27088-1.7296-0.21352-2.5022 0.15654-0.66685 0.31943-1.2155 0.8579-1.6104 1.483-0.3949 0.62512-0.64229 1.3348-0.79504 2.0583-0.51459 2.4372 0.0237 4.9545 0.4009 7.4167 1.0911 7.1219 0.8242 14.377 1.3943 21.56 0.55049 6.9355 2.0265 14.123 6.4161 19.521 1.6739 2.0583 3.737 3.799 6.0476 5.1027"/>
  <path transform="matrix(.8589 0 0 .8589 12.082 19.706)" d="m51.783 227.45c-0.57409 5.432-1.2673 10.851-2.0789 16.253-0.40631 2.7042-0.83449 5.5224 0 8.1265 0.49204 1.5355 1.404 2.9105 2.4806 4.1108 1.0766 1.2003 2.3191 2.2388 3.567 3.2597 13.239 10.831 27.619 20.194 42.333 28.915 2.6509 1.5713 5.4323 3.1611 8.5045 3.4018 1.9766 0.15485 3.9649-0.26661 5.8217-0.96178s3.5994-1.6591 5.3286-2.629c14.688-8.2378 29.098-17.26 41.286-28.881 1.8966-1.8085 3.7785-3.7385 4.8108-6.1472 0.908-2.1187 1.0981-4.4843 0.95487-6.7849s-0.60555-4.5674-0.95487-6.8458c-0.48475-3.1617-0.75285-6.3566-0.80181-9.5549"/>
 </g>
 <path d="m113.78 179.29c-2.694 0.0617-5.3177 1.1727-8.0228 1.1291-0.2822-0.019-0.55851-9e-3 -0.82062 0-2.7051 0.0436-5.3288-1.0674-8.0228-1.1291-0.1796-4e-3 -0.35976-4e-3 -0.54002 3e-3 -3.036 0.0988-5.7902 1.6776-8.5835 2.8712-2.9382 1.2556-6.0491 2.1195-8.8635 3.6323-2.6151 1.4056-4.9624 3.3963-6.4931 5.9402-1.3375 2.2227-2.0176 4.8352-1.9342 7.428 1.8125 1.0584 4.0489 1.3645 6.0792 0.83251 1.9521-0.51152 3.6325-1.7324 5.2209-2.9771 1.5884-1.2446 3.1701-2.558 5.0436-3.3078 1.6724-0.66931 3.5023-0.8559 5.3036-0.83716 1.8013 0.0188 3.5942 0.2354 5.3924 0.34107 2.6015 0.15285 5.2048 0.0713 7.8078-0.0796 2.603 0.1509 5.2063 0.23244 7.8078 0.0796 1.7983-0.10567 3.5912-0.32226 5.3924-0.34107 1.8012-0.0188 3.6312 0.16785 5.3036 0.83716 1.8735 0.74981 3.4552 2.0632 5.0436 3.3078 1.5884 1.2447 3.2688 2.4656 5.2209 2.9771 2.0303 0.53202 4.2667 0.22587 6.0792-0.83251 0.0833-2.5928-0.59679-5.2052-1.9342-7.428-1.5307-2.5439-3.8781-4.5346-6.4932-5.9402-2.8144-1.5128-5.9253-2.3768-8.8635-3.6323-2.7933-1.1936-5.5475-2.7723-8.5834-2.8712-0.18027-7e-3 -0.36042-7e-3 -0.54002-3e-3z" stroke="#000" stroke-width=".20343px"/>
</svg>
