<?xml version="1.0" encoding="UTF-8" standalone="no"?>
<!-- Created with Inkscape (http://www.inkscape.org/) -->

<svg
   xmlns:dc="http://purl.org/dc/elements/1.1/"
   xmlns:cc="http://creativecommons.org/ns#"
   xmlns:rdf="http://www.w3.org/1999/02/22-rdf-syntax-ns#"
   xmlns:svg="http://www.w3.org/2000/svg"
   xmlns="http://www.w3.org/2000/svg"
   xmlns:sodipodi="http://sodipodi.sourceforge.net/DTD/sodipodi-0.dtd"
   xmlns:inkscape="http://www.inkscape.org/namespaces/inkscape"
   width="131mm"
   height="48mm"
   viewBox="0 0 131 48"
   version="1.1"
   id="svg8"
   inkscape:version="0.92.4 (5da689c313, 2019-01-14)"
   sodipodi:docname="logo.svg">
  <defs
     id="defs2" />
  <sodipodi:namedview
     id="base"
     pagecolor="#ffffff"
     bordercolor="#666666"
     borderopacity="1.0"
     inkscape:pageopacity="0.0"
     inkscape:pageshadow="2"
     inkscape:zoom="0.49497475"
     inkscape:cx="229.52125"
     inkscape:cy="134.05594"
     inkscape:document-units="mm"
     inkscape:current-layer="layer1"
     showgrid="false"
     showguides="true"
     inkscape:guide-bbox="true"
     inkscape:window-width="1280"
     inkscape:window-height="789"
     inkscape:window-x="26"
     inkscape:window-y="26"
     inkscape:window-maximized="0" />
  <metadata
     id="metadata5">
    <rdf:RDF>
      <cc:Work
         rdf:about="">
        <dc:format>image/svg+xml</dc:format>
        <dc:type
           rdf:resource="http://purl.org/dc/dcmitype/StillImage" />
        <dc:title />
      </cc:Work>
    </rdf:RDF>
  </metadata>
  <g
     inkscape:label="Sluoksnis 1"
     inkscape:groupmode="layer"
     id="layer1"
     transform="translate(0,-249)">
    <flowRoot
       xml:space="preserve"
       id="flowRoot815"
       style="font-style:normal;font-variant:normal;font-weight:normal;font-stretch:normal;font-size:85.33333588px;line-height:62.95000076;font-family:sans-serif;-inkscape-font-specification:sans-serif;text-align:end;letter-spacing:0.03px;word-spacing:0px;text-anchor:end;fill:#000000;fill-opacity:1;stroke:none"
       transform="scale(0.26458333)"><flowRegion
         id="flowRegion817"
         style="font-size:85.33333588px;line-height:62.95000076"><rect
           id="rect819"
           width="477.80215"
           height="227.28432"
           x="119.198"
           y="350.76315"
           style="font-size:85.33333588px;line-height:62.95000076" /></flowRegion><flowPara
         id="flowPara821" /></flowRoot>    <flowRoot
       xml:space="preserve"
       id="flowRoot823"
       style="font-style:normal;font-variant:normal;font-weight:normal;font-stretch:normal;font-size:96px;line-height:1.25;font-family:sans-serif;-inkscape-font-specification:sans-serif;text-align:end;letter-spacing:0.03px;word-spacing:0px;text-anchor:end;fill:#000000;fill-opacity:1;stroke:none"><flowRegion
         id="flowRegion825"
         style="font-size:96px"><rect
           id="rect827"
           width="428.57144"
           height="255.71428"
           x="132.85715"
           y="316.80539"
           style="font-size:96px" /></flowRegion><flowPara
         id="flowPara829" /></flowRoot>    <g
       aria-label="sys"
       transform="matrix(0.26458333,0,0,0.26458333,49.360632,16.270275)"
       style="font-style:normal;font-variant:normal;font-weight:normal;font-stretch:normal;font-size:192px;line-height:1.25;font-family:sans-serif;-inkscape-font-specification:sans-serif;text-align:start;letter-spacing:0.03px;word-spacing:0px;text-anchor:start;fill:#37c871;fill-opacity:1;stroke:none"
       id="flowRoot831-6" />
    <flowRoot
       xml:space="preserve"
       id="flowRoot928"
       style="font-style:normal;font-variant:normal;font-weight:normal;font-stretch:normal;font-size:13.33333302px;line-height:1.25;font-family:sans-serif;-inkscape-font-specification:sans-serif;text-align:end;letter-spacing:0.03px;word-spacing:0px;text-anchor:end;fill:#000000;fill-opacity:1;stroke:none"><flowRegion
         id="flowRegion930"><rect
           id="rect932"
           width="1754.2858"
           height="551.42859"
           x="391.42856"
           y="753.94824" /></flowRegion><flowPara
         id="flowPara934" /></flowRoot>    <flowRoot
       xml:space="preserve"
       id="flowRoot832"
       style="font-style:normal;font-variant:normal;font-weight:normal;font-stretch:normal;font-size:13.33333302px;line-height:1.25;font-family:'Source Serif Pro';-inkscape-font-specification:'Source Serif Pro';text-align:start;letter-spacing:0.03px;word-spacing:0px;text-anchor:start;fill:#000000;fill-opacity:1;stroke:none;"
       transform="matrix(0.26458333,0,0,0.26458333,0,249)"><flowRegion
         id="flowRegion834"
         style="text-anchor:start;text-align:start;-inkscape-font-specification:'Source Serif Pro';font-family:'Source Serif Pro';font-weight:normal;font-style:normal;font-stretch:normal;font-variant:normal;"><rect
           id="rect836"
           width="642.85712"
           height="205.71428"
           x="-82.85714"
           y="-267.15411"
           style="text-anchor:start;text-align:start;-inkscape-font-specification:'Source Serif Pro';font-family:'Source Serif Pro';font-weight:normal;font-style:normal;font-stretch:normal;font-variant:normal;" /></flowRegion><flowPara
         id="flowPara838" /></flowRoot>    <path
       inkscape:connector-curvature="0"
       id="path879"
       style="font-style:normal;font-variant:normal;font-weight:600;font-stretch:normal;font-size:74.66666412px;line-height:1.25;font-family:'Source Serif Pro';-inkscape-font-specification:'Source Serif Pro Semi-Bold';text-align:start;letter-spacing:0.03px;word-spacing:0px;text-anchor:start;fill:#37c871;fill-opacity:1;stroke:none;stroke-width:0.61697078"
       d="m 13.406516,281.07451 q -2.119091,0 -3.9157087,-0.50674 -1.7505498,-0.46067 -3.5010989,-1.42808 l -0.04609,-5.34379 h 3.0865002 l 0.8292087,4.28424 q 1.6584167,0.69101 3.5932377,0.69101 2.349424,0 3.501099,-0.82921 1.151681,-0.82921 1.151681,-2.30336 0,-1.28988 -0.921341,-2.07302 -0.921348,-0.82921 -3.13257,-1.56628 l -2.303356,-0.78315 q -2.5797574,-0.82921 -4.0999738,-2.44155 -1.4741521,-1.61235 -1.4741521,-4.05391 0,-1.93483 1.0134784,-3.5011 1.0134795,-1.61236 2.9482995,-2.5337 1.980883,-0.96741 4.790981,-0.96741 1.98089,0 3.593238,0.50674 1.658418,0.46067 3.270767,1.38201 l -0.230334,4.83705 h -3.040431 l -0.829208,-3.86964 q -1.289883,-0.5528 -2.856162,-0.5528 -1.842688,0 -2.856167,0.78314 -1.013473,0.78314 -1.013473,2.11909 0,1.24381 0.829209,2.02696 0.875271,0.73707 3.224696,1.52021 l 1.842688,0.55281 q 3.362905,1.15167 4.790983,2.85616 1.428085,1.70448 1.428085,4.09997 0,3.0865 -2.533697,5.11346 -2.487627,1.98089 -7.140407,1.98089 z" />
    <path
       style="font-style:normal;font-variant:normal;font-weight:600;font-stretch:normal;font-size:74.66666412px;line-height:1.25;font-family:'Source Serif Pro';-inkscape-font-specification:'Source Serif Pro Semi-Bold';text-align:start;letter-spacing:0.03px;word-spacing:0px;text-anchor:start;fill:#37c871;fill-opacity:1;stroke:none;stroke-width:0.61697078"
       d="m 31.240986,254.59966 -8.383983,2.07326 v 1.79679 l 3.362585,0.46043 v 12.35429 c 0,1.04419 -0.01526,2.2112 -0.04599,3.50108 0,1.28988 -0.01526,2.51853 -0.04599,3.68556 l -3.13263,0.59893 v 1.88877 H 34.92655 V 279.07 l -3.086634,-0.55294 c -0.0307,-1.01347 -0.06125,-2.07301 -0.09198,-3.17862 v -3.2706 l 2.395202,-2.34972 6.173266,11.24065 h 6.891054 c -0.726853,-0.73687 -1.489805,-1.59595 -2.10013,-2.53369 v 0 l -7.094141,-12.484 4.652428,-4.51497 2.128552,-0.30385 c 0.009,-0.0123 0.01728,-0.0249 0.02635,-0.0372 0.593026,-0.81197 1.249463,-1.542 1.966804,-2.19263 H 35.985915 l -0.04599,1.93476 3.455085,0.69144 -7.647077,7.73906 v -7.74785 l 0.183967,-6.49521 z"
       id="path881"
       inkscape:connector-curvature="0"
       sodipodi:nodetypes="ccccscccccccccccccccccccccccccc" />
    <path
       inkscape:connector-curvature="0"
       id="path883"
       style="font-style:normal;font-variant:normal;font-weight:600;font-stretch:normal;font-size:74.66666412px;line-height:1.25;font-family:'Source Serif Pro';-inkscape-font-specification:'Source Serif Pro Semi-Bold';text-align:start;letter-spacing:0.03px;word-spacing:0px;text-anchor:start;fill:#37c871;fill-opacity:1;stroke:none;stroke-width:0.61697078"
       d="m 51.566749,261.01822 q -1.002922,0.46533 -1.695627,1.59927 -0.670303,1.07276 -0.702109,2.86496 0.01,1.7728 1.006132,4.35766 l 5.72501,-2.65622 q 1.504383,-0.69798 1.715019,-1.55746 0.210633,-0.85949 -0.312853,-1.98778 -0.891869,-1.92227 -2.540637,-2.63003 -1.648763,-0.70777 -3.194935,0.01 z m 8.899298,19.18089 q -2.925186,1.35719 -5.721625,1.13112 -2.79644,-0.22606 -5.135845,-1.98456 -2.358794,-1.80029 -3.871093,-5.05978 -1.551075,-3.34307 -1.235409,-6.38422 0.338064,-3.10232 2.054774,-5.42234 1.739107,-2.38119 4.371777,-3.60267 2.465514,-1.14391 4.788919,-0.95229 2.323399,0.19162 4.198801,1.60677 1.917191,1.39576 3.099887,3.94486 0.620427,1.33722 0.815632,2.41469 l -12.787252,5.93286 q 1.834564,3.51626 4.38159,4.51824 2.588813,0.98258 5.221483,-0.2389 1.838688,-0.85309 2.762737,-2.14514 0.94645,-1.35324 1.44828,-3.00802 l 1.715969,0.52423 q -0.145505,2.86063 -1.675673,5.14488 -1.507763,2.22308 -4.432952,3.58027 z" />
    <path
       style="font-style:normal;font-variant:normal;font-weight:600;font-stretch:normal;font-size:74.66666412px;line-height:1.25;font-family:'Source Serif Pro';-inkscape-font-specification:'Source Serif Pro Semi-Bold';text-align:start;letter-spacing:0.03px;word-spacing:0px;text-anchor:start;fill:#37c871;fill-opacity:1;stroke:none;stroke-width:0.61697078"
       d="m 72.579304,257.71843 -7.69307,2.90214 v 1.7508 l 3.224609,0.41445 c 0.06142,0.92134 0.09198,1.7659 0.09198,2.53369 0.03071,0.73707 0.04599,1.73497 0.04599,2.99413 v 2.44171 3.50108 c 0,1.3206 -0.01527,2.56453 -0.04599,3.73156 l -2.948141,0.55294 v 1.88877 h 8.553485 c -0.01299,-4.27667 0.01667,-9.07376 0.01498,-13.03693 0.706364,-2.45691 1.873372,-4.36101 3.501078,-5.71231 l 0.414446,0.46043 c 0.982766,1.10561 2.027012,1.6583 3.132624,1.6583 0.921343,0 1.64315,-0.30716 2.165242,-0.92139 0.522094,-0.64494 0.798695,-1.53535 0.829408,-2.67167 -0.21498,-0.7985 -0.675982,-1.41282 -1.382345,-1.84278 -0.675651,-0.42996 -1.428017,-0.64492 -2.257227,-0.64492 -1.197745,0 -2.395315,0.50683 -3.593062,1.52032 -1.197745,1.01347 -2.149793,2.47237 -2.856156,4.37647 L 73.3162,258.17938 Z"
       id="path885"
       inkscape:connector-curvature="0"
       sodipodi:nodetypes="cccccscscccccccscccscccc" />
    <path
       inkscape:connector-curvature="0"
       id="path872"
       style="font-style:normal;font-variant:normal;font-weight:600;font-stretch:normal;font-size:74.66666412px;line-height:1.25;font-family:'Source Serif Pro';-inkscape-font-specification:'Source Serif Pro Semi-Bold';text-align:start;letter-spacing:0.03px;word-spacing:0px;text-anchor:start;fill:#37c871;fill-opacity:1;stroke:none;stroke-width:0.61697078"
       d="m 83.467673,288.70899 q -2.119091,0 -3.91571,-0.50673 -1.750549,-0.46068 -3.501099,-1.42809 l -0.04609,-5.34378 h 3.086501 l 0.829209,4.28424 q 1.658418,0.69101 3.593238,0.69101 2.349425,0 3.5011,-0.82921 1.15168,-0.82921 1.15168,-2.30336 0,-1.28988 -0.921341,-2.07302 -0.921347,-0.82921 -3.13257,-1.56628 l -2.303356,-0.78315 q -2.579758,-0.82921 -4.099974,-2.44156 -1.474153,-1.61234 -1.474153,-4.05391 0,-1.93482 1.013479,-3.5011 1.01348,-1.61235 2.9483,-2.53369 1.980884,-0.96741 4.790982,-0.96741 1.980889,0 3.593238,0.50674 1.658417,0.46067 3.270766,1.38201 l -0.230334,4.83705 h -3.040432 l -0.829209,-3.86964 q -1.289882,-0.55281 -2.856161,-0.55281 -1.842689,0 -2.856168,0.78315 -1.013473,0.78314 -1.013473,2.11908 0,1.24382 0.829209,2.02696 0.875271,0.73707 3.224696,1.52022 l 1.842688,0.5528 q 3.362904,1.15168 4.790982,2.85617 1.428084,1.70448 1.428084,4.09997 0,3.0865 -2.533696,5.11345 -2.487626,1.98089 -7.140406,1.98089 z" />
    <path
       inkscape:connector-curvature="0"
       id="path874"
       style="font-style:normal;font-variant:normal;font-weight:600;font-stretch:normal;font-size:74.66666412px;line-height:1.25;font-family:'Source Serif Pro';-inkscape-font-specification:'Source Serif Pro Semi-Bold';text-align:start;letter-spacing:0.03px;word-spacing:0px;text-anchor:start;fill:#37c871;fill-opacity:1;stroke:none;stroke-width:0.61697078"
       d="m 104.81856,263.07804 v -1.84268 h 8.84485 v 1.84268 l -2.57976,0.50674 -7.87745,20.54595 q -1.98088,5.29772 -4.007834,7.83142 -2.026951,2.53369 -5.021314,2.53369 -1.796619,0 -3.132571,-0.92134 -1.289876,-0.92135 -1.382014,-2.30336 0.276403,-1.24381 1.243813,-1.88875 1.013479,-0.59888 2.211223,-0.59888 0.921347,0 1.796619,0.36854 0.921347,0.4146 1.842688,1.56628 l 0.276403,0.36854 q 1.243813,-1.19774 2.165153,-2.76403 0.921344,-1.52022 1.520214,-3.27077 l 0.0921,-0.2764 -8.752758,-21.32909 -2.349425,-0.36854 v -1.84268 h 12.069583 v 1.84268 l -3.639294,0.50674 5.159514,14.09655 5.0213,-14.05048 z" />
    <path
       inkscape:connector-curvature="0"
       id="path876"
       style="font-style:normal;font-variant:normal;font-weight:600;font-stretch:normal;font-size:74.66666412px;line-height:1.25;font-family:'Source Serif Pro';-inkscape-font-specification:'Source Serif Pro Semi-Bold';text-align:start;letter-spacing:0.03px;word-spacing:0px;text-anchor:start;fill:#37c871;fill-opacity:1;stroke:none;stroke-width:0.61697078"
       d="m 117.70743,288.70899 q -2.1191,0 -3.91571,-0.50673 -1.75055,-0.46068 -3.50111,-1.42809 l -0.0461,-5.34378 h 3.0865 l 0.82921,4.28424 q 1.65841,0.69101 3.59323,0.69101 2.34943,0 3.50111,-0.82921 1.15168,-0.82921 1.15168,-2.30336 0,-1.28988 -0.92135,-2.07302 -0.92134,-0.82921 -3.13256,-1.56628 l -2.30336,-0.78315 q -2.57976,-0.82921 -4.09998,-2.44156 -1.47414,-1.61234 -1.47414,-4.05391 0,-1.93482 1.01348,-3.5011 1.01347,-1.61235 2.94829,-2.53369 1.98089,-0.96741 4.79099,-0.96741 1.98088,0 3.59323,0.50674 1.65842,0.46067 3.27077,1.38201 l -0.23033,4.83705 h -3.04044 l -0.8292,-3.86964 q -1.28989,-0.55281 -2.85617,-0.55281 -1.84268,0 -2.85616,0.78315 -1.01348,0.78314 -1.01348,2.11908 0,1.24382 0.82921,2.02696 0.87527,0.73707 3.2247,1.52022 l 1.84269,0.5528 q 3.3629,1.15168 4.79098,2.85617 1.42808,1.70448 1.42808,4.09997 0,3.0865 -2.53369,5.11345 -2.48763,1.98089 -7.14041,1.98089 z" />
  </g>
</svg>
